<svg xmlns="http://www.w3.org/2000/svg" xmlns:xlink="http://www.w3.org/1999/xlink" viewBox="0 0 50 48.78"><defs><style>.cls-1{fill:#e5ae4c;}.cls-2{fill:#fdbf00;}.cls-3{fill:#f3d44a;}.cls-4{fill:url(#linear-gradient);}.cls-5{fill:url(#linear-gradient-2);}</style><linearGradient id="linear-gradient" x1="46.96" y1="4.16" x2="46.96" y2="19.58" gradientUnits="userSpaceOnUse"><stop offset="0" stop-color="#6cc3e8"/><stop offset="1" stop-color="#3095e3"/></linearGradient><linearGradient id="linear-gradient-2" x1="38.98" y1="0" x2="38.98" y2="9.96" xlink:href="#linear-gradient"/></defs><title>Asset 1</title><g id="Layer_2" data-name="Layer 2"><g id="Layer_1-2" data-name="Layer 1"><path class="cls-1" d="M30.86,45.85l-2.93,1.46H16.21l-2.93-1.46a4.39,4.39,0,0,0,4.39-4.39l4.39-.09,4.39-.09A4.43,4.43,0,0,0,30.86,45.85Z"/><path class="cls-2" d="M13.26,40A13.18,13.18,0,0,1,0,26.81a7.42,7.42,0,0,1,7.42-7.32,7.34,7.34,0,0,1,7.18,5.89l-2.87.57a4.4,4.4,0,0,0-4.31-3.53,4.48,4.48,0,0,0-4.49,4.39,10.38,10.38,0,0,0,3.41,7.54A10.19,10.19,0,0,0,14.15,37l.24,2.92C14,40,13.64,40,13.26,40Z"/><path class="cls-3" d="M22.07,10.7a4.39,4.39,0,1,0,4.39,4.39A4.39,4.39,0,0,0,22.07,10.7Zm0,5.86a1.46,1.46,0,1,1,1.46-1.46A1.47,1.47,0,0,1,22.07,16.56Z"/><path class="cls-1" d="M32.32,26.4l-20.51.41a10.26,10.26,0,0,1,20.51-.41Z"/><path class="cls-3" d="M42.68,22.42l-.57.09a56.05,56.05,0,0,1-17.58,2.84H13.28a4.39,4.39,0,0,0-4.39,4.39A13.2,13.2,0,0,0,22.07,42.92,25,25,0,0,0,42,33l8-10.55Z"/><path class="cls-3" d="M8.89,45.85H35.25v2.93H8.89Z"/><path class="cls-4" d="M47,19.58a2.24,2.24,0,0,1-2.35-2.11V6.27a2.37,2.37,0,0,1,4.7,0V17.48A2.24,2.24,0,0,1,47,19.58Z"/><path class="cls-5" d="M39,10A2.06,2.06,0,0,1,36.92,7.9V2.06a2.06,2.06,0,1,1,4.13,0V7.9A2.06,2.06,0,0,1,39,10Z"/></g></g></svg>