<svg xmlns="http://www.w3.org/2000/svg" xmlns:xlink="http://www.w3.org/1999/xlink" viewBox="0 0 373.49 450.51"><defs><style>.cls-1{fill:url(#linear-gradient);}.cls-2{fill:none;}.cls-3{fill:#ffc6c2;}.cls-4{fill:#efb930;}.cls-5{fill:#ffe164;}.cls-6{fill:#ffcf41;}.cls-7{fill:#e655be;}.cls-8{fill:#ffb4ec;}.cls-9{fill:#fe80db;}.cls-10{fill:#b79676;}.cls-11{fill:#97a4ff;}.cls-12{fill:#f4bb82;}.cls-13{fill:#ffcf99;}.cls-14{fill:#48e5c6;}.cls-15{fill:#29ccb1;}.cls-16{fill:#22aa90;}.cls-17{fill:#9ebbdd;}.cls-18{fill:#bdd7ef;}.cls-19{fill:#80a0c1;}.cls-20{fill:#2a209b;}.cls-21{fill:#fec1af;}.cls-22{fill:#bad4f5;}.cls-23{fill:#3b2ad2;}.cls-24{fill:#f09c84;}.cls-25{fill:#2b1f9b;fill-rule:evenodd;}</style><linearGradient id="linear-gradient" x1="112.5" y1="421.01" x2="260.99" y2="272.52" gradientTransform="translate(437.32 42.9) rotate(67.81)" gradientUnits="userSpaceOnUse"><stop offset="0" stop-color="#6cc3e8"/><stop offset="1" stop-color="#3095e3"/></linearGradient></defs><title>Asset 12</title><g id="Layer_2" data-name="Layer 2"><g id="Layer_1-2" data-name="Layer 1"><ellipse class="cls-1" cx="186.74" cy="346.76" rx="77.17" ry="199.18" transform="translate(-204.86 388.74) rotate(-67.81)"/><path class="cls-2" d="M107.6,217.75c-.23,0-.48.06-.72.09C107.12,217.81,107.36,217.79,107.6,217.75Z"/><path class="cls-2" d="M104.9,217.88c-.27,0-.55-.08-.83-.13C104.34,217.8,104.63,217.85,104.9,217.88Z"/><path class="cls-2" d="M106.29,217.91c-.25,0-.52,0-.78,0C105.77,217.9,106,217.92,106.29,217.91Z"/><path class="cls-2" d="M103.44,217.65c-.3-.06-.6-.16-.91-.25C102.83,217.49,103.14,217.59,103.44,217.65Z"/><path class="cls-2" d="M108.82,217.4c-.21.08-.44.13-.66.19C108.38,217.53,108.61,217.48,108.82,217.4Z"/><path class="cls-2" d="M109.95,216.87c-.19.11-.4.19-.6.28C109.55,217.06,109.76,217,109.95,216.87Z"/><path class="cls-2" d="M100.33,216.59q-.8-.37-1.63-.84Q99.53,216.22,100.33,216.59Z"/><path class="cls-2" d="M101.91,217.22c-.35-.12-.71-.28-1.06-.43C101.21,216.95,101.56,217.1,101.91,217.22Z"/><path class="cls-3" d="M160.76,304.4c-.12.23-.24.46-.37.67C160.52,304.86,160.64,304.63,160.76,304.4Z"/><path class="cls-3" d="M161.36,303.1c-.1.26-.19.53-.3.77C161.17,303.63,161.26,303.36,161.36,303.1Z"/><path class="cls-3" d="M161.82,301.63c-.07.29-.14.6-.23.88C161.68,302.23,161.74,301.92,161.82,301.63Z"/><path class="cls-3" d="M162.14,299.91c0,.36-.09.73-.16,1.08C162.05,300.65,162.09,300.28,162.14,299.91Z"/><path class="cls-3" d="M162.31,297.52q0,.94-.09,1.81Q162.31,298.46,162.31,297.52Z"/><path class="cls-4" d="M158.21,307.32c-2.91,2-7.1,2-11.78-.74l-.08,29.72,49.1-28.53.06-22.06-37.81,22C157.87,307.58,158,307.44,158.21,307.32Z"/><path class="cls-3" d="M160,305.55c-.14.19-.28.39-.43.56C159.75,305.94,159.88,305.74,160,305.55Z"/><path class="cls-3" d="M159.17,306.52c-.16.16-.32.33-.49.47C158.86,306.85,159,306.68,159.17,306.52Z"/><polygon class="cls-5" points="132.02 159.88 99.08 140.86 49.99 169.4 82.93 188.41 132.02 159.88"/><path class="cls-4" d="M98.71,215.75q.82.48,1.63.84c.17.08.34.13.51.21.36.15.71.31,1.06.43s.41.11.62.17.61.19.91.25.42.06.63.1.56.1.83.13.41,0,.61,0,.53,0,.78,0,.39,0,.59-.07.49,0,.72-.09.38-.11.57-.16.45-.11.66-.19.35-.16.53-.25.41-.17.6-.28c2.86-1.65,4.63-5.16,4.65-10.17L148,187.3l-.16-.08c-8.74-5-15.81-17.29-15.78-27.34l-49.1,28.53C82.9,198.46,90,210.7,98.71,215.75Z"/><path class="cls-5" d="M195.63,241.65l-49.1,28.53c8.74,5,15.81,17.29,15.78,27.33q0,.94-.09,1.81c0,.2-.06.39-.09.59,0,.36-.09.73-.16,1.08s-.11.42-.17.64-.14.6-.23.88-.15.39-.23.59-.19.53-.3.77-.2.35-.29.53-.24.46-.37.67-.24.32-.36.48-.28.39-.43.56-.28.27-.42.41-.32.33-.49.47-.32.22-.48.33-.34.25-.52.36l37.81-22,11.29-6.56c2.84-1.65,4.61-5.17,4.62-10.17C211.44,258.94,204.37,246.7,195.63,241.65Z"/><path class="cls-6" d="M158.21,307.32c.16-.11.33-.21.48-.33s.33-.31.49-.47.29-.26.42-.41.29-.37.43-.56.25-.31.36-.48.25-.45.37-.67.21-.34.29-.53.2-.51.3-.77.16-.38.23-.59.15-.58.23-.88.12-.42.17-.64.11-.71.16-1.08c0-.2.07-.38.09-.59q.08-.87.09-1.81c0-10-7-22.29-15.78-27.33l.13-45-32.07-18.51c0,5-1.79,8.53-4.65,10.17-.19.11-.4.19-.6.28s-.35.18-.53.25-.44.13-.66.19-.37.12-.57.16-.48.06-.72.09-.39.06-.59.07-.52,0-.78,0-.4,0-.61,0-.55-.08-.83-.13-.42-.05-.63-.1-.6-.16-.91-.25-.41-.1-.62-.17-.71-.28-1.06-.43c-.17-.07-.34-.13-.51-.21q-.8-.37-1.63-.84c-8.73-5-15.81-17.29-15.78-27.33L50,169.4l-.28,97.41c0,7.55,5.29,16.76,11.86,20.56l84.77,48.94.08-29.72C151.1,309.28,155.3,309.35,158.21,307.32Z"/><polygon class="cls-4" points="146.53 270.18 195.63 241.65 195.63 241.65 195.76 196.68 146.66 225.21 146.53 270.18"/><polygon class="cls-5" points="146.66 225.21 195.76 196.68 163.69 178.16 147.97 187.3 114.59 206.69 146.66 225.21"/><path class="cls-2" d="M48,28.66c-.15,0-.29.08-.43.12C47.66,28.75,47.8,28.69,48,28.66Z"/><path class="cls-2" d="M47,28.93c-.14.05-.27.12-.4.19C46.77,29.05,46.89,29,47,28.93Z"/><path class="cls-2" d="M123.62,109.9c0,.2-.07.39-.09.6C123.55,110.29,123.59,110.1,123.62,109.9Z"/><path class="cls-2" d="M48.48,28.6c.15,0,.3,0,.45-.06C48.78,28.55,48.64,28.58,48.48,28.6Z"/><path class="cls-2" d="M124.4,106.73c-.08.2-.16.38-.23.59C124.24,107.12,124.32,106.93,124.4,106.73Z"/><path class="cls-2" d="M53.41,29.53,53,29.37Z"/><path class="cls-2" d="M51.08,28.73l-.46-.07Z"/><path class="cls-2" d="M126.16,103.72c.13-.15.28-.27.42-.41C126.44,103.45,126.29,103.57,126.16,103.72Z"/><path class="cls-2" d="M123.94,108.21c-.05.21-.12.41-.16.63C123.82,108.62,123.89,108.42,123.94,108.21Z"/><path class="cls-2" d="M103.4,181.16c.17-.14.33-.31.49-.47C103.73,180.85,103.57,181,103.4,181.16Z"/><path class="cls-2" d="M52.22,29.05l-.44-.12Z"/><path class="cls-2" d="M50,28.56c-.16,0-.31,0-.46,0C49.67,28.56,49.82,28.55,50,28.56Z"/><path class="cls-2" d="M105.1,179.25c.14-.21.25-.45.38-.67C105.35,178.8,105.24,179,105.1,179.25Z"/><path class="cls-2" d="M127.55,102.51c-.16.11-.33.21-.48.33C127.22,102.72,127.39,102.62,127.55,102.51Z"/><path class="cls-2" d="M125.73,104.29c-.12.16-.25.3-.36.47C125.48,104.59,125.61,104.45,125.73,104.29Z"/><path class="cls-2" d="M125,105.43c-.1.18-.2.34-.29.53C124.79,105.77,124.9,105.61,125,105.43Z"/><path class="cls-2" d="M104.74,179.72c-.14.19-.28.39-.44.57C104.46,180.11,104.6,179.91,104.74,179.72Z"/><path class="cls-2" d="M105.77,178c.11-.24.21-.52.31-.78C106,177.53,105.88,177.8,105.77,178Z"/><path class="cls-2" d="M106.3,176.68c.09-.29.16-.61.24-.93C106.47,176.07,106.4,176.39,106.3,176.68Z"/><path class="cls-2" d="M106.7,175.17c.07-.36.12-.74.17-1.12C106.81,174.43,106.77,174.81,106.7,175.17Z"/><path class="cls-2" d="M106.94,173.51q.08-.87.09-1.81Q107,172.64,106.94,173.51Z"/><path class="cls-7" d="M106.94,173.51c0,.19-.06.36-.08.54,0,.38-.09.77-.17,1.12,0,.21-.1.39-.15.59s-.15.63-.24.93-.15.39-.23.58-.19.53-.31.78-.2.35-.29.53-.24.46-.38.67-.24.31-.36.47-.28.39-.44.57-.28.27-.42.4-.32.33-.49.47-.31.22-.47.32-.34.26-.52.36l11.07-6.43L107,171.7Q107,172.64,106.94,173.51Z"/><polygon class="cls-7" points="139.08 190.21 188.18 161.68 188.32 111.11 139.23 139.64 139.08 190.21"/><path class="cls-8" d="M127.55,102.51c-.16.11-.33.21-.48.33s-.33.31-.49.47-.29.26-.42.41-.29.38-.44.57-.25.3-.36.47-.25.45-.37.67-.2.34-.29.53-.2.51-.3.77-.16.38-.23.59-.16.58-.23.88-.12.41-.16.63-.11.7-.16,1.06c0,.2-.07.39-.09.6q-.08.87-.09,1.81c0,10,7,22.29,15.78,27.33l49.1-28.53c-8.69-5-15.72-17.15-15.77-27.16l-33.22,19.3C134.65,100.56,130.46,100.48,127.55,102.51Z"/><path class="cls-9" d="M139.23,139.64c-8.74-5-15.81-17.29-15.78-27.33q0-.94.09-1.81c0-.21.06-.4.09-.6,0-.36.09-.72.16-1.06s.11-.42.16-.63.14-.6.23-.88.15-.39.23-.59.19-.53.3-.77.2-.35.29-.53.24-.46.37-.67.24-.31.36-.47.28-.39.44-.57.28-.27.42-.41.32-.33.49-.47.32-.22.48-.33c2.91-2,7.1-2,11.78.74l.07-24.15L54.63,30.16q-.62-.36-1.22-.63L53,29.37c-.27-.11-.54-.23-.8-.32l-.44-.12c-.24-.07-.48-.15-.71-.2l-.46-.07c-.21,0-.43-.08-.64-.1s-.31,0-.46,0-.39,0-.58,0-.3,0-.45.06-.36,0-.53.07-.29.08-.43.12-.33.08-.49.14-.27.12-.4.19-.3.13-.45.21C44,30.57,42.7,33.22,42.69,37l-.28,97.41,32.94,19c0,10,7,22.29,15.78,27.33,4.69,2.71,8.89,2.78,11.8.74.16-.11.32-.2.47-.32s.33-.31.49-.47.29-.26.42-.4.29-.38.44-.57.25-.3.36-.47.25-.45.38-.67.2-.34.29-.53.21-.52.31-.78.16-.38.23-.58.16-.61.24-.93.11-.38.15-.59c.07-.36.12-.74.17-1.12,0-.18.06-.35.08-.54q.08-.87.09-1.81l6.45,3.72,25.61,14.79Z"/><polygon class="cls-7" points="188.5 50.57 139.4 79.1 139.33 103.26 172.55 83.95 188.43 74.72 188.5 50.57"/><path class="cls-8" d="M103.72,1.63c-3.3-1.91-6.3-2.08-8.46-.83L46.17,29.33h0c.14-.08.3-.14.45-.21s.26-.14.4-.19.32-.1.49-.14.28-.09.43-.12.35,0,.53-.07.3,0,.45-.06.39,0,.58,0,.3,0,.46,0,.42.06.64.1l.46.07c.23.05.47.13.71.2l.44.12c.26.09.53.21.8.32l.39.16q.6.28,1.22.63L139.4,79.1l49.1-28.53Z"/><path class="cls-2" d="M199.09,169.76c-.21-.07-.4-.11-.61-.17C198.69,169.65,198.89,169.69,199.09,169.76Z"/><path class="cls-2" d="M197.57,169.33c-.21,0-.42-.06-.62-.1C197.16,169.27,197.36,169.28,197.57,169.33Z"/><path class="cls-2" d="M200.67,170.39c-.19-.09-.37-.14-.55-.22C200.31,170.25,200.49,170.3,200.67,170.39Z"/><path class="cls-2" d="M192.19,169.58c-.18.07-.35.16-.53.24C191.84,169.75,192,169.65,192.19,169.58Z"/><path class="cls-2" d="M296.09,418.17c-.12.12-.24.25-.37.35C295.86,418.42,296,418.29,296.09,418.17Z"/><path class="cls-2" d="M194.13,169.15c.2,0,.39-.06.6-.07C194.52,169.08,194.33,169.12,194.13,169.15Z"/><path class="cls-2" d="M196.11,169.1c-.21,0-.42,0-.63,0C195.69,169.09,195.9,169.08,196.11,169.1Z"/><path class="cls-2" d="M193.41,169.24c-.19,0-.37.11-.56.16C193,169.34,193.22,169.27,193.41,169.24Z"/><path class="cls-2" d="M298.45,411.41q0,.71-.07,1.36Q298.45,412.12,298.45,411.41Z"/><path class="cls-2" d="M298.32,413.22c0,.27-.07.55-.12.8C298.26,413.76,298.29,413.49,298.32,413.22Z"/><path class="cls-2" d="M297.74,415.59c-.08.2-.14.4-.23.59C297.6,416,297.66,415.79,297.74,415.59Z"/><path class="cls-2" d="M297.29,416.58c-.09.17-.18.35-.28.5C297.11,416.93,297.19,416.75,297.29,416.58Z"/><path class="cls-2" d="M298.09,414.48c-.06.23-.11.46-.18.67C298,414.94,298,414.71,298.09,414.48Z"/><path class="cls-2" d="M296.74,417.44c-.11.14-.21.3-.33.43C296.53,417.73,296.63,417.58,296.74,417.44Z"/><path class="cls-2" d="M201.82,339.54q.82.48,1.63.84Q202.64,340,201.82,339.54Z"/><path class="cls-2" d="M208,341.67c-.27,0-.55-.08-.83-.13C207.46,341.59,207.74,341.65,208,341.67Z"/><path class="cls-2" d="M205,341c-.35-.12-.71-.28-1.06-.43C204.32,340.75,204.67,340.9,205,341Z"/><path class="cls-2" d="M209.4,341.71c-.25,0-.52,0-.78,0C208.88,341.7,209.14,341.72,209.4,341.71Z"/><path class="cls-2" d="M206.55,341.45c-.29-.06-.6-.16-.9-.25C205.95,341.28,206.25,341.38,206.55,341.45Z"/><path class="cls-2" d="M213.06,340.66c-.19.11-.4.19-.6.28C212.66,340.85,212.87,340.77,213.06,340.66Z"/><path class="cls-2" d="M210.71,341.54c-.23,0-.48.06-.72.09C210.23,341.61,210.47,341.59,210.71,341.54Z"/><path class="cls-2" d="M211.93,341.19c-.21.08-.44.13-.66.19C211.49,341.32,211.72,341.27,211.93,341.19Z"/><path class="cls-10" d="M204,340.59c.36.15.71.31,1.06.43s.41.11.62.18.61.19.9.25.42.06.63.1.56.1.83.13.41,0,.61,0,.53,0,.78,0,.39,0,.59-.07.49,0,.72-.09.38-.11.57-.16.45-.11.66-.19.35-.16.53-.25.41-.17.6-.28c2.86-1.65,4.63-5.16,4.65-10.17,0-.06,0-.12,0-.17l-15.88,9.23q.82.48,1.63.84C203.62,340.47,203.79,340.52,204,340.59Z"/><path class="cls-11" d="M192.19,169.58c.21-.08.44-.13.66-.19s.37-.12.56-.16.48-.06.71-.09.39-.06.6-.07.51,0,.76,0,.41,0,.63,0,.56.08.83.13.41.05.62.1.61.17.92.26.4.1.61.17.68.27,1,.41c.18.08.36.14.55.22q.8.37,1.62.84l0-7.66L191,170.13h0c.19-.11.4-.19.6-.29S192,169.65,192.19,169.58Z"/><path class="cls-12" d="M298.73,314l-.28,97.41q0,.71-.07,1.36c0,.16,0,.3-.07.45s-.07.55-.12.8-.08.31-.12.46-.11.46-.18.67-.11.29-.17.44-.14.4-.23.59-.15.27-.22.4-.18.35-.28.5-.18.24-.27.35-.21.3-.33.43-.21.2-.32.31-.24.25-.37.35-.24.17-.36.25-.25.19-.39.27l49.1-28.53c2.14-1.24,3.46-3.88,3.47-7.63l.28-97.41Z"/><path class="cls-13" d="M296.09,418.17c.11-.1.22-.19.32-.31s.22-.28.33-.43.19-.23.27-.35.19-.33.28-.5.15-.26.22-.4.16-.39.23-.59.12-.28.17-.44.12-.45.18-.67.09-.3.12-.46.08-.53.12-.8.05-.29.07-.45q.06-.65.07-1.36l.28-97.41-30.1-17.38a34.79,34.79,0,0,0-15.79-27.34c-8.74-5-15.86-1-15.88,9.05L202,258.18l-.13,45c8.7,5,15.72,17.15,15.77,27.16,0,.06,0,.12,0,.17,0,5-1.79,8.53-4.65,10.17-.19.11-.4.19-.6.28s-.35.18-.53.25-.44.13-.66.19-.37.12-.57.16-.48.06-.72.09-.39.06-.59.07-.52,0-.78,0-.4,0-.61,0-.55-.08-.83-.13-.42-.05-.63-.1-.6-.16-.9-.25-.41-.1-.62-.18-.71-.28-1.06-.43c-.17-.07-.34-.13-.52-.21q-.8-.37-1.63-.84l-.08,29.72,84.77,48.94c3.52,2,6.67,2.09,8.86.56.12-.08.24-.16.36-.25S296,418.29,296.09,418.17Z"/><polygon class="cls-14" points="287.13 196.02 336.23 167.49 251.46 118.55 202.37 147.08 287.13 196.02"/><path class="cls-15" d="M252.84,269.28a34.79,34.79,0,0,1,15.79,27.34L298.73,314l.28-97.41c0-7.56-5.3-16.78-11.87-20.57l-84.77-48.94,0,16.49,0,7.66q-.82-.47-1.62-.84c-.19-.09-.37-.14-.55-.22-.34-.14-.69-.3-1-.41s-.4-.11-.61-.17-.62-.19-.92-.26-.42-.06-.62-.1-.56-.1-.83-.13-.42,0-.63,0-.51,0-.76,0-.4,0-.6.07-.48,0-.71.09-.37.11-.56.16-.45.11-.66.19-.35.16-.53.24-.41.18-.6.29c-2.86,1.65-4.63,5.16-4.65,10.17,0,10.06,7,22.29,15.78,27.33L202,258.18,237,278.34C237,268.29,244.1,264.24,252.84,269.28Z"/><path class="cls-16" d="M336.23,167.49,287.14,196c6.57,3.8,11.89,13,11.87,20.57L298.73,314l49.1-28.53.28-97.41C348.12,180.5,342.8,171.29,336.23,167.49Z"/><polygon class="cls-17" points="73.82 354.6 70.86 352.89 70.86 211.46 73.82 213.18 73.82 354.6"/><polygon class="cls-18" points="73.82 213.18 70.86 211.46 75.06 209.04 78.03 210.75 73.82 213.18"/><polygon class="cls-19" points="73.82 354.6 73.82 213.18 78.03 210.75 78.03 352.17 73.82 354.6"/><polygon class="cls-18" points="100.99 254.62 73.82 238.93 78.03 236.52 105.2 252.21 100.99 254.62"/><polygon class="cls-17" points="100.99 259.47 73.82 243.78 73.82 238.93 100.99 254.62 100.99 259.47"/><polygon class="cls-18" points="100.99 277.63 73.82 261.95 78.03 259.54 105.2 275.23 100.99 277.63"/><polygon class="cls-17" points="100.99 282.49 73.82 266.8 73.82 261.95 100.99 277.63 100.99 282.49"/><polygon class="cls-18" points="100.99 300.65 73.82 284.96 78.03 282.56 105.2 298.24 100.99 300.65"/><polygon class="cls-17" points="100.99 305.51 73.82 289.82 73.82 284.96 100.99 300.65 100.99 305.51"/><polygon class="cls-18" points="100.99 323.67 73.82 307.98 78.03 305.57 105.2 321.26 100.99 323.67"/><polygon class="cls-17" points="100.99 328.52 73.82 312.83 73.82 307.98 100.99 323.67 100.99 328.52"/><polygon class="cls-18" points="100.99 346.69 73.82 331 78.03 328.59 105.2 344.28 100.99 346.69"/><polygon class="cls-17" points="100.99 351.54 73.82 335.85 73.82 331 100.99 346.69 100.99 351.54"/><polygon class="cls-18" points="103.96 230.58 100.99 228.87 105.2 226.44 108.16 228.15 103.96 230.58"/><polygon class="cls-17" points="103.96 372 100.99 370.29 100.99 228.87 103.96 230.58 103.96 372"/><polygon class="cls-19" points="103.96 372 103.96 230.58 108.16 228.15 108.16 369.57 103.96 372"/><path class="cls-20" d="M100.71,243.4c.06,1.07-1.55,2.56-4,4-3.26,1.88-4.41,4.27-8.44,1.94-1.15-.67-1.64-1.2-1.66-1.66v-2.51c-.11-1.17,2.68-1.89,5-3.24C94.89,240,98.4,239,100.07,240a1.1,1.1,0,0,1,.64.92Z"/><path class="cls-20" d="M96.71,244.84c3.26-1.88,5-3.91,3.36-4.88s-5.18.06-8.44,1.94-7.39,2.55-3.36,4.88S93.45,246.73,96.71,244.84Z"/><path class="cls-20" d="M91.65,237.15c.06,1.07-1.55,2.56-4,4-3.26,1.88-4.41,4.27-8.44,1.94-1.15-.67-1.64-1.2-1.66-1.66v-2.51c-.11-1.17,2.68-1.89,5-3.24,3.26-1.88,6.77-2.91,8.44-1.94a1.1,1.1,0,0,1,.64.92Z"/><path class="cls-20" d="M87.65,238.6c3.26-1.88,5-3.91,3.36-4.88s-5.18.06-8.44,1.94-7.39,2.55-3.36,4.88S84.39,240.48,87.65,238.6Z"/><path class="cls-21" d="M95,165.79h0a2.68,2.68,0,0,0-3.67.92L80.55,184.62a2.68,2.68,0,0,0,.92,3.67h0a2.68,2.68,0,0,0,3.67-.92l10.75-17.92A2.68,2.68,0,0,0,95,165.79Z"/><path class="cls-22" d="M88.09,185.3l-3.47,5.78a4.15,4.15,0,0,1-5.68,1.42h0a4.15,4.15,0,0,1-1.42-5.68L81,181S85.45,179.26,88.09,185.3Z"/><path class="cls-23" d="M86.72,244a1.75,1.75,0,0,1-.19-.81v-28c0-1.77,1.82-3.21,4.05-3.21h0c2.23,0,4.05,1.45,4.05,3.21v30.4a1,1,0,0,1-.72,1C92.36,247.09,88.68,247.76,86.72,244Z"/><path class="cls-23" d="M78,237.55a1.75,1.75,0,0,1-.19-.81v-28c0-1.77,1.82-3.21,4.05-3.21h0c2.23,0,4.05,1.45,4.05,3.21v30.4a1,1,0,0,1-.72,1C83.59,240.62,79.91,241.3,78,237.55Z"/><path class="cls-22" d="M93.3,220.27a.74.74,0,0,1-.34.11c-1.79.14-8.23-1.26-14.67-8.52a3.37,3.37,0,0,1-.87-2.09v-20.6A3.39,3.39,0,0,1,78.86,186l4.84-2.83a3.38,3.38,0,0,1,3.45.32l6.61,3.81a10.76,10.76,0,0,1,4.85,8.4v20.72a1.05,1.05,0,0,1-.47,1Z"/><path class="cls-24" d="M91.43,188.61a1.68,1.68,0,0,1-1,1.42,5.34,5.34,0,0,1-4.83,0,1.68,1.68,0,0,1-1-1.42v-4.49a1.68,1.68,0,0,1,1-1.42,5.34,5.34,0,0,1,4.83,0,1.68,1.68,0,0,1,1,1.42Z"/><circle class="cls-21" cx="88.01" cy="176.96" r="9.4"/><path class="cls-21" d="M111.21,171.25h0a2.68,2.68,0,0,0-3.74.55L95.71,188.45a2.68,2.68,0,0,0,.55,3.74h0a2.68,2.68,0,0,0,3.74-.55L111.76,175A2.68,2.68,0,0,0,111.21,171.25Z"/><path class="cls-22" d="M103.14,189.88l-4,5.41a4.15,4.15,0,0,1-5.79.85h0a4.15,4.15,0,0,1-.85-5.79l4-5.41S101.12,183.6,103.14,189.88Z"/><path class="cls-25" d="M82.71,185.53c3,1.73,5.23.42,6-.84,2-3.15,2.37-1,3.58-2.53,1.59-2.6,1.23-6.15,3.43-7.79,3.15-2.35,2.29-7-5.94-9.14-11.05-2.82-15.41,11.11-8.51,19.16A4.37,4.37,0,0,0,82.71,185.53Z"/><path class="cls-21" d="M91.3,182.56a1.07,1.07,0,0,0,2-.53,3.89,3.89,0,0,0-.91-3.4,1.07,1.07,0,0,0-2,.53A3.89,3.89,0,0,0,91.3,182.56Z"/></g></g></svg>