<svg xmlns="http://www.w3.org/2000/svg" viewBox="0 0 18.87 18.88"><defs><style>.cls-1{fill:#3095e2;}</style></defs><title>Asset 2</title><g id="Layer_2" data-name="Layer 2"><g id="Layer_1-2" data-name="Layer 1"><path class="cls-1" d="M18.31,17.55l-4.39-4.39a7.71,7.71,0,1,0-.76.76l4.39,4.39a.54.54,0,0,0,.38.16.53.53,0,0,0,.38-.16A.54.54,0,0,0,18.31,17.55ZM1.49,8.11A6.62,6.62,0,1,1,8.1,14.73,6.63,6.63,0,0,1,1.49,8.11Z"/><path class="cls-1" d="M17.93,18.59a.67.67,0,0,1-.47-.2l-4.31-4.31a7.84,7.84,0,1,1,.94-.94l4.31,4.31a.66.66,0,0,1,0,.94A.65.65,0,0,1,17.93,18.59Zm-4.76-4.84.08.08,4.39,4.39a.41.41,0,1,0,.58-.58l-4.47-4.47.08-.09a7.57,7.57,0,1,0-.75.75ZM8.1,14.86a6.75,6.75,0,1,1,6.74-6.75A6.75,6.75,0,0,1,8.1,14.86Zm0-13.24A6.5,6.5,0,1,0,14.6,8.11,6.5,6.5,0,0,0,8.1,1.61Z"/><path class="cls-1" d="M17.93,18.75a.83.83,0,0,1-.58-.24L13.14,14.3a8,8,0,1,1,1.16-1.16l4.21,4.21a.82.82,0,0,1-.58,1.4Zm-4.76-5.22,4.58,4.58a.22.22,0,0,0,.36,0,.26.26,0,0,0,.08-.18.25.25,0,0,0-.07-.18l-4.58-4.58.17-.2a7.42,7.42,0,1,0-.73.73ZM8.1,15A6.9,6.9,0,1,1,15,8.11,6.91,6.91,0,0,1,8.1,15Zm0-13.24a6.34,6.34,0,1,0,6.34,6.34A6.34,6.34,0,0,0,8.1,1.77Z"/><path class="cls-1" d="M17.93,18.88a1,1,0,0,1-.67-.28l-4.13-4.13a8.11,8.11,0,1,1,1.34-1.34l4.13,4.13a.95.95,0,0,1-.67,1.62Zm-4.78-4.74.08.08,4.21,4.21a.72.72,0,0,0,1,0,.7.7,0,0,0,0-1l-4.29-4.29.07-.09a7.87,7.87,0,1,0-1.14,1.14Zm4.78,4.2a.38.38,0,0,1-.27-.13L13.17,13.7l-.11.1a7.55,7.55,0,1,1,.75-.75l-.1.11,4.49,4.49a.38.38,0,0,1,0,.54.37.37,0,0,1-.26.13Zm-4.75-5,.08.08L17.84,18s.06.06.09.06h0A.15.15,0,0,0,18,18a.13.13,0,0,0,0-.1.13.13,0,0,0,0-.09l-4.66-4.66.25-.29a7.29,7.29,0,1,0-.72.72ZM8.1,15.14a7,7,0,1,1,7-7A7,7,0,0,1,8.1,15.14Zm0-13.81a6.78,6.78,0,1,0,6.78,6.78A6.78,6.78,0,0,0,8.1,1.33Zm0,13.24a6.46,6.46,0,1,1,6.46-6.47A6.47,6.47,0,0,1,8.1,14.57ZM8.1,1.9a6.21,6.21,0,1,0,6.21,6.21A6.22,6.22,0,0,0,8.1,1.9Z"/></g></g></svg>