<svg xmlns="http://www.w3.org/2000/svg" viewBox="0 0 30.03 29.3"><defs><style>.cls-1{fill:#e5ae4c;}.cls-2{fill:#fdbf00;}.cls-3{fill:#f3d44a;}.cls-4{fill:#67c1f9;}</style></defs><title>Asset 18</title><g id="Layer_2" data-name="Layer 2"><g id="Layer_1-2" data-name="Layer 1"><path class="cls-1" d="M18.53,27.54l-1.76.88h-7L8,27.54a2.64,2.64,0,0,0,2.64-2.64l2.64-.05,2.64-.05A2.66,2.66,0,0,0,18.53,27.54Z"/><path class="cls-2" d="M8,24A7.92,7.92,0,0,1,0,16.1a4.45,4.45,0,0,1,4.46-4.4,4.41,4.41,0,0,1,4.31,3.54L7,15.58a2.64,2.64,0,0,0-2.59-2.12,2.69,2.69,0,0,0-2.7,2.64,6.23,6.23,0,0,0,2,4.53,6.12,6.12,0,0,0,4.69,1.6L8.64,24Z"/><path class="cls-3" d="M13.25,6.42a2.64,2.64,0,1,0,2.64,2.64A2.64,2.64,0,0,0,13.25,6.42Zm0,3.52a.88.88,0,1,1,.88-.88A.88.88,0,0,1,13.25,9.94Z"/><path class="cls-1" d="M19.41,15.85,7.1,16.1a6.16,6.16,0,0,1,12.32-.25Z"/><path class="cls-3" d="M25.63,13.46l-.34.05a33.66,33.66,0,0,1-10.56,1.71H8a2.64,2.64,0,0,0-2.64,2.64,7.93,7.93,0,0,0,7.92,7.92,15,15,0,0,0,12-6L30,13.46Z"/><path class="cls-3" d="M5.34,27.54H21.17V29.3H5.34Z"/><path class="cls-4" d="M28.2,11.76a1.34,1.34,0,0,1-1.41-1.26V3.76a1.42,1.42,0,0,1,2.82,0V10.5A1.34,1.34,0,0,1,28.2,11.76Z"/><path class="cls-4" d="M23.41,6a1.24,1.24,0,0,1-1.24-1.24V1.24a1.24,1.24,0,0,1,2.48,0v3.5A1.24,1.24,0,0,1,23.41,6Z"/></g></g></svg>