<svg xmlns="http://www.w3.org/2000/svg" viewBox="0 0 88.93 91.96"><defs><style>.cls-1{fill:#ffcf99;}.cls-2{fill:#29ccb1;}.cls-3{fill:#73c3ff;}.cls-4{fill:#44a4ec;}</style></defs><title>Asset 11</title><g id="Layer_2" data-name="Layer 2"><g id="Layer_1-2" data-name="Layer 1"><path class="cls-1" d="M60.32,45.83H37a2.7,2.7,0,0,1-1.37-5c10.17-6,15.46-13,16.15-21.43a5.8,5.8,0,0,1,5.8-5.21,11.41,11.41,0,0,1,11.23,11.4h0v.91c0,7.36-2.18,12.06-6.21,18.15A2.7,2.7,0,0,1,60.32,45.83Z"/><path class="cls-1" d="M88.93,48.88a8.47,8.47,0,0,0-8.46-8.46H37a2.7,2.7,0,0,0-1.37.38c-3.05,1.81-6.14,3.29-8.61,4.49l-2.42,1.18a2.7,2.7,0,0,0-1.49,2.41V83.43a2.7,2.7,0,0,0,1.49,2.41C35.47,91.3,44.53,92,55.11,92c1.64,0,3.31,0,5,0,1.9,0,3.87,0,5.94,0h8.53a8.45,8.45,0,0,0,7.28-12.76,8.45,8.45,0,0,0,2.88-11.52A8.45,8.45,0,0,0,86.61,54.7,8.4,8.4,0,0,0,88.93,48.88Z"/><path class="cls-2" d="M83.32,25.35H77.56a2.7,2.7,0,1,1,0-5.4h5.76a2.7,2.7,0,1,1,0,5.4Z"/><path class="cls-2" d="M43,25.35H37.25a2.7,2.7,0,1,1,0-5.4H43a2.7,2.7,0,0,1,0,5.4Z"/><path class="cls-2" d="M51.65,10.39A2.7,2.7,0,0,1,49.31,9L46.43,4a2.7,2.7,0,1,1,4.67-2.7l2.88,5a2.7,2.7,0,0,1-2.33,4Z"/><path class="cls-2" d="M68.92,10.39a2.7,2.7,0,0,1-2.33-4l2.88-5A2.7,2.7,0,0,1,74.14,4L71.26,9A2.7,2.7,0,0,1,68.92,10.39Z"/><path id="SVGCleanerId_0" data-name="SVGCleanerId 0" class="cls-3" d="M16.91,77.71V91.93h-5.4V77.71a2.7,2.7,0,0,1,5.4,0Z"/><path class="cls-2" d="M83.32,25.35H77.56a2.7,2.7,0,1,1,0-5.4h5.76a2.7,2.7,0,1,1,0,5.4Z"/><path class="cls-2" d="M43,25.35H37.25a2.7,2.7,0,1,1,0-5.4H43a2.7,2.7,0,0,1,0,5.4Z"/><path class="cls-2" d="M51.65,10.39A2.7,2.7,0,0,1,49.31,9L46.43,4a2.7,2.7,0,1,1,4.67-2.7l2.88,5a2.7,2.7,0,0,1-2.33,4Z"/><path class="cls-2" d="M68.92,10.39a2.7,2.7,0,0,1-2.33-4l2.88-5A2.7,2.7,0,0,1,74.14,4L71.26,9A2.7,2.7,0,0,1,68.92,10.39Z"/><path id="SVGCleanerId_0-2" data-name="SVGCleanerId 0" class="cls-3" d="M16.91,77.71V91.93h-5.4V77.71a2.7,2.7,0,0,1,5.4,0Z"/><path class="cls-4" d="M25.73,40.43H2.7A2.7,2.7,0,0,0,0,43.13V89.19a2.75,2.75,0,0,0,2.7,2.73H20a8.56,8.56,0,0,0,7.57-4.72,8.39,8.39,0,0,0,.89-3.77V43.13A2.7,2.7,0,0,0,25.73,40.43Z"/><path class="cls-3" d="M16.91,77.53v14.4h-5.4V77.53a2.7,2.7,0,0,1,5.4,0Z"/></g></g></svg>