<svg xmlns="http://www.w3.org/2000/svg" viewBox="0 0 36 36"><defs><style>.cls-1{fill:#464a5e;}.cls-2{fill:#b6cdd3;}.cls-3{fill:#ccdade;}.cls-4{fill:#f8d539;}.cls-5{fill:#ff6853;}.cls-6{fill:#f2ecda;}.cls-7{fill:#fff;}.cls-8{fill:#eae2cc;}</style></defs><title>Asset 29</title><g id="Layer_2" data-name="Layer 2"><g id="Layer_1-2" data-name="Layer 1"><path class="cls-1" d="M29.25,36a4.5,4.5,0,0,1-4.5-4.5V25.88a3.38,3.38,0,0,0-3.37-3.37H19.13V20.25h2.25A5.63,5.63,0,0,1,27,25.88V31.5a2.25,2.25,0,0,0,4.5,0V14.63h2.25V31.5A4.5,4.5,0,0,1,29.25,36Z"/><path class="cls-2" d="M33.75,7.88H31.5V4.5a2.25,2.25,0,0,0-2.25-2.25H28.13V0h1.13a4.5,4.5,0,0,1,4.5,4.5Z"/><path class="cls-1" d="M27,15.75H24.75V9h5.63v2.25H27Z"/><path class="cls-3" d="M29.25,6.75H36v9H29.25Z"/><path class="cls-4" d="M2.25,11.25h18V34.88h-18Z"/><path class="cls-5" d="M16.88,0H5.63A3.38,3.38,0,0,0,2.25,3.38V14.63h18V3.38A3.38,3.38,0,0,0,16.88,0Z"/><path class="cls-6" d="M5.63,3.38H16.88v9H5.63Z"/><path class="cls-1" d="M0,33.75H22.5V36H0Z"/><path class="cls-7" d="M12.3,30.79,10.2,30l1.63-4.08H7.34l2.87-7.17,2.09.83-1.63,4.08h4.5Z"/><path class="cls-7" d="M31.5,9h2.25v2.25H31.5Z"/><path class="cls-8" d="M5.63,3.38H16.88V5.63H5.63Z"/></g></g></svg>