<svg xmlns="http://www.w3.org/2000/svg" viewBox="0 0 87.9 100.01"><defs><style>.cls-1{fill:#d8d8fc;}.cls-2{fill:#61729b;}.cls-3{fill:#a3a3d1;}.cls-4{fill:#ffda2d;}.cls-5{fill:#eebf00;}</style></defs><title>Asset 9</title><g id="Layer_2" data-name="Layer 2"><g id="Layer_1-2" data-name="Layer 1"><path class="cls-1" d="M23.44,76.62l-5.86-12H14.65A14.67,14.67,0,0,0,0,79.31V97.08A2.93,2.93,0,0,0,2.93,100H17.58L23.44,88.1Z"/><path class="cls-2" d="M61.53,64.66a2.75,2.75,0,0,0-2.05.88l-8.85,8.85-4-8.09a3,3,0,0,0-5.27,0l-4,8.09-8.85-8.85a2.75,2.75,0,0,0-2.05-.88H17.58V100H70.32V64.66Z"/><path class="cls-1" d="M73.25,64.66H70.32L64.46,71V93.44L70.32,100H85a2.93,2.93,0,0,0,2.93-2.93V79.31A14.67,14.67,0,0,0,73.25,64.66Z"/><path class="cls-3" d="M56.2,59.5c-.7.64-9.55,9.49-10.2,10.14a2.83,2.83,0,0,1-4.1,0L32.41,60.2l1-7.27H54.5S55.38,56.45,56.2,59.5Z"/><path class="cls-3" d="M56.2,59.5c-.7.64-9.55,9.49-10.2,10.14a2.75,2.75,0,0,1-2.05.88V52.94H54.5S55.38,56.45,56.2,59.5Z"/><path class="cls-4" d="M83.66,34.85,71.94,29a2.93,2.93,0,1,1,2.62-5.24l11.72,5.86a2.93,2.93,0,1,1-2.62,5.24Z"/><path class="cls-4" d="M64.46,20.51A20.39,20.39,0,0,1,58.6,34.75v9.2a2.9,2.9,0,0,1-2.93,2.93H46.88L44,44.3,41,46.88H32.23a2.9,2.9,0,0,1-2.93-2.93v-9.2A20.48,20.48,0,1,1,64.46,20.51Z"/><path class="cls-5" d="M51.86,22.56l-5,5V46.88H41V27.6l-5-5a2.9,2.9,0,1,1,4.1-4.1L44,22.21l3.81-3.75a2.9,2.9,0,1,1,4.1,4.1Z"/><path class="cls-4" d="M70.63,16A2.93,2.93,0,0,1,71.94,12L83.66,6.17a2.93,2.93,0,1,1,2.62,5.24L74.56,17.27A2.93,2.93,0,0,1,70.63,16Z"/><path class="cls-4" d="M13.34,17.27,1.62,11.41A2.93,2.93,0,0,1,4.24,6.17L16,12a2.93,2.93,0,0,1-2.62,5.24Z"/><path class="cls-4" d="M.31,33.54a2.93,2.93,0,0,1,1.31-3.93l11.72-5.86A2.93,2.93,0,0,1,16,29L4.24,34.85A2.93,2.93,0,0,1,.31,33.54Z"/><path class="cls-1" d="M63.35,64.66,51.86,81.36a2.89,2.89,0,0,1-4.69-.76L44,74.15l-3.22,6.45a2.92,2.92,0,0,1-4.69.76L24.55,64.66,33.4,52.94,44,69.34,54.5,52.94Z"/><path class="cls-5" d="M46.88,46.88H44V22.21l3.81-3.75a2.9,2.9,0,0,1,4.1,4.1l-5,5Z"/><path class="cls-1" d="M54.5,52.94l8.85,11.72L51.86,81.36a2.89,2.89,0,0,1-4.69-.76L44,74.15V69.34Z"/></g></g></svg>