<svg xmlns="http://www.w3.org/2000/svg" xmlns:xlink="http://www.w3.org/1999/xlink" viewBox="0 0 218.89 136.59"><defs><style>.cls-1{fill:#3095e2;}.cls-2{opacity:0.1;}.cls-16,.cls-2,.cls-6,.cls-8{isolation:isolate;}.cls-3{fill:url(#linear-gradient);}.cls-4,.cls-8{fill:#f5f5f5;}.cls-5,.cls-7{fill:none;stroke:#535461;stroke-miterlimit:10;}.cls-5{stroke-width:2px;}.cls-6,.cls-8{opacity:0.2;}.cls-9{fill:#a8a8a8;}.cls-10{fill:url(#linear-gradient-2);}.cls-11{fill:#f7c4a7;}.cls-12{fill:#535461;}.cls-13{fill:#575988;}.cls-14{fill:#e14b5a;}.cls-15{fill:#632652;}.cls-16{fill:#fff;opacity:0.5;}.cls-17{fill:#67647e;}</style><linearGradient id="linear-gradient" x1="152.09" y1="-1285.1" x2="152.09" y2="-1275.8" gradientTransform="matrix(1, 0, 0, -1, 0, -1270)" gradientUnits="userSpaceOnUse"><stop offset="0" stop-color="gray" stop-opacity="0.25"/><stop offset="0.54" stop-color="gray" stop-opacity="0.12"/><stop offset="1" stop-color="gray" stop-opacity="0.1"/></linearGradient><linearGradient id="linear-gradient-2" x1="249.38" y1="-1522.28" x2="249.38" y2="-1395.42" gradientTransform="matrix(1, 0, 0, -1, -79.84, -1395.42)" xlink:href="#linear-gradient"/></defs><title>Asset 43</title><g id="Layer_2" data-name="Layer 2"><g id="Layer_1-2" data-name="Layer 1"><rect class="cls-1" x="33.73" y="85.88" width="21.67" height="8.63" rx="1.86" ry="1.86"/><rect class="cls-1" x="55.4" y="85.88" width="21.67" height="8.63" rx="1.86" ry="1.86"/><rect class="cls-2" x="55.4" y="85.88" width="21.67" height="8.63" rx="1.86" ry="1.86"/><rect class="cls-1" x="77.08" y="85.88" width="21.67" height="8.63" rx="1.86" ry="1.86"/><rect class="cls-1" x="98.75" y="85.88" width="21.67" height="8.63" rx="1.86" ry="1.86"/><rect class="cls-2" x="98.75" y="85.88" width="21.67" height="8.63" rx="1.86" ry="1.86"/><rect class="cls-1" x="120.42" y="85.88" width="21.67" height="8.63" rx="1.86" ry="1.86"/><rect class="cls-1" x="142.09" y="85.88" width="21.67" height="8.63" rx="1.86" ry="1.86"/><rect class="cls-2" x="142.09" y="85.88" width="21.67" height="8.63" rx="1.86" ry="1.86"/><rect class="cls-1" x="142.09" y="77.26" width="21.67" height="8.63" rx="1.86" ry="1.86"/><rect class="cls-1" x="120.42" y="77.26" width="21.67" height="8.63" rx="1.86" ry="1.86"/><rect class="cls-2" x="120.42" y="77.26" width="21.67" height="8.63" rx="1.86" ry="1.86"/><rect class="cls-1" x="98.75" y="77.26" width="21.67" height="8.63" rx="1.86" ry="1.86"/><rect class="cls-1" x="77.08" y="77.26" width="21.67" height="8.63" rx="1.86" ry="1.86"/><rect class="cls-2" x="77.08" y="77.26" width="21.67" height="8.63" rx="1.86" ry="1.86"/><rect class="cls-1" x="55.4" y="77.26" width="21.67" height="8.63" rx="1.86" ry="1.86"/><rect class="cls-1" x="33.73" y="77.26" width="21.67" height="8.63" rx="1.86" ry="1.86"/><rect class="cls-2" x="33.73" y="77.26" width="21.67" height="8.63" rx="1.86" ry="1.86"/><rect class="cls-1" x="33.73" y="68.63" width="21.67" height="8.63" rx="1.86" ry="1.86"/><rect class="cls-1" x="55.4" y="68.63" width="21.67" height="8.63" rx="1.86" ry="1.86"/><rect class="cls-2" x="55.4" y="68.63" width="21.67" height="8.63" rx="1.86" ry="1.86"/><rect class="cls-1" x="77.08" y="68.63" width="21.67" height="8.63" rx="1.86" ry="1.86"/><rect class="cls-1" x="98.75" y="68.63" width="21.67" height="8.63" rx="1.86" ry="1.86"/><rect class="cls-2" x="98.75" y="68.63" width="21.67" height="8.63" rx="1.86" ry="1.86"/><rect class="cls-1" x="120.42" y="68.63" width="21.67" height="8.63" rx="1.86" ry="1.86"/><rect class="cls-1" x="142.09" y="68.63" width="21.67" height="8.63" rx="1.86" ry="1.86"/><rect class="cls-2" x="142.09" y="68.63" width="21.67" height="8.63" rx="1.86" ry="1.86"/><rect class="cls-1" x="142.09" y="60" width="21.67" height="8.63" rx="1.86" ry="1.86"/><rect class="cls-1" x="120.42" y="60" width="21.67" height="8.63" rx="1.86" ry="1.86"/><rect class="cls-2" x="120.42" y="60" width="21.67" height="8.63" rx="1.86" ry="1.86"/><rect class="cls-1" x="98.75" y="60" width="21.67" height="8.63" rx="1.86" ry="1.86"/><rect class="cls-1" x="77.08" y="60" width="21.67" height="8.63" rx="1.86" ry="1.86"/><rect class="cls-2" x="77.08" y="60" width="21.67" height="8.63" rx="1.86" ry="1.86"/><rect class="cls-1" x="55.4" y="60" width="21.67" height="8.63" rx="1.86" ry="1.86"/><rect class="cls-1" x="33.73" y="60" width="21.67" height="8.63" rx="1.86" ry="1.86"/><rect class="cls-2" x="33.73" y="60" width="21.67" height="8.63" rx="1.86" ry="1.86"/><rect class="cls-1" x="33.73" y="51.8" width="21.67" height="8.63" rx="1.86" ry="1.86"/><rect class="cls-1" x="55.4" y="51.8" width="21.67" height="8.63" rx="1.86" ry="1.86"/><rect class="cls-2" x="55.4" y="51.8" width="21.67" height="8.63" rx="1.86" ry="1.86"/><rect class="cls-1" x="77.08" y="51.8" width="21.67" height="8.63" rx="1.86" ry="1.86"/><rect class="cls-1" x="98.75" y="51.8" width="21.67" height="8.63" rx="1.86" ry="1.86"/><rect class="cls-2" x="98.75" y="51.8" width="21.67" height="8.63" rx="1.86" ry="1.86"/><rect class="cls-1" x="120.42" y="51.8" width="21.67" height="8.63" rx="1.86" ry="1.86"/><rect class="cls-1" x="142.09" y="51.8" width="21.67" height="8.63" rx="1.86" ry="1.86"/><rect class="cls-2" x="142.09" y="51.8" width="21.67" height="8.63" rx="1.86" ry="1.86"/><rect class="cls-1" x="142.09" y="43.17" width="21.67" height="8.63" rx="1.86" ry="1.86"/><rect class="cls-1" x="120.42" y="43.17" width="21.67" height="8.63" rx="1.86" ry="1.86"/><rect class="cls-2" x="120.42" y="43.17" width="21.67" height="8.63" rx="1.86" ry="1.86"/><rect class="cls-1" x="98.75" y="43.17" width="21.67" height="8.63" rx="1.86" ry="1.86"/><rect class="cls-1" x="77.08" y="43.17" width="21.67" height="8.63" rx="1.86" ry="1.86"/><rect class="cls-2" x="77.08" y="43.17" width="21.67" height="8.63" rx="1.86" ry="1.86"/><rect class="cls-1" x="55.4" y="43.17" width="21.67" height="8.63" rx="1.86" ry="1.86"/><rect class="cls-1" x="33.73" y="43.17" width="21.67" height="8.63" rx="1.86" ry="1.86"/><rect class="cls-2" x="33.73" y="43.17" width="21.67" height="8.63" rx="1.86" ry="1.86"/><rect class="cls-1" x="33.73" y="34.54" width="21.67" height="8.63" rx="1.86" ry="1.86"/><rect class="cls-1" x="55.4" y="34.54" width="21.67" height="8.63" rx="1.86" ry="1.86"/><rect class="cls-2" x="55.4" y="34.54" width="21.67" height="8.63" rx="1.86" ry="1.86"/><rect class="cls-1" x="77.08" y="34.54" width="21.67" height="8.63" rx="1.86" ry="1.86"/><rect class="cls-1" x="98.75" y="34.54" width="21.67" height="8.63" rx="1.86" ry="1.86"/><rect class="cls-2" x="98.75" y="34.54" width="21.67" height="8.63" rx="1.86" ry="1.86"/><rect class="cls-1" x="120.42" y="34.54" width="21.67" height="8.63" rx="1.86" ry="1.86"/><rect class="cls-1" x="142.09" y="34.54" width="21.67" height="8.63" rx="1.86" ry="1.86"/><rect class="cls-2" x="142.09" y="34.54" width="21.67" height="8.63" rx="1.86" ry="1.86"/><rect class="cls-3" x="140.41" y="5.8" width="23.36" height="9.3" rx="1.86" ry="1.86"/><rect class="cls-1" x="141.25" y="6.14" width="21.67" height="8.63" rx="1.86" ry="1.86"/><rect class="cls-1" x="120.42" y="25.92" width="21.67" height="8.63" rx="1.86" ry="1.86"/><rect class="cls-2" x="120.42" y="25.92" width="21.67" height="8.63" rx="1.86" ry="1.86"/><rect class="cls-1" x="98.75" y="25.92" width="21.67" height="8.63" rx="1.86" ry="1.86"/><rect class="cls-1" x="77.08" y="25.92" width="21.67" height="8.63" rx="1.86" ry="1.86"/><rect class="cls-2" x="77.08" y="25.92" width="21.67" height="8.63" rx="1.86" ry="1.86"/><rect class="cls-1" x="55.4" y="25.92" width="21.67" height="8.63" rx="1.86" ry="1.86"/><rect class="cls-1" x="33.73" y="25.92" width="21.67" height="8.63" rx="1.86" ry="1.86"/><rect class="cls-2" x="33.73" y="25.92" width="21.67" height="8.63" rx="1.86" ry="1.86"/><ellipse class="cls-4" cx="104.99" cy="112.71" rx="104.99" ry="23.88"/><path class="cls-5" d="M24,102s1.89-6.4-.35-11.11a10.1,10.1,0,0,1-.82-6.34,17,17,0,0,1,.9-3"/><path class="cls-1" d="M22.31,78.59a11.25,11.25,0,0,0,1.42,3.06,11.25,11.25,0,0,0,1.42-3.06,1.42,1.42,0,1,0-2.84,0Z"/><path class="cls-1" d="M20,82.93c.42.66,2.86,1.79,2.86,1.79a11.23,11.23,0,0,0-.47-3.34A1.42,1.42,0,0,0,20,82.93Z"/><path class="cls-1" d="M20.06,90.36a11.22,11.22,0,0,0,3.37.11,11.25,11.25,0,0,0-2.09-2.64,1.42,1.42,0,0,0-1.28,2.54Z"/><path class="cls-1" d="M21.41,96a11.24,11.24,0,0,0,3.3.68,11.3,11.3,0,0,0-1.61-3A1.42,1.42,0,0,0,21.41,96Z"/><path class="cls-1" d="M25.8,84.88A11.23,11.23,0,0,1,22.61,86a11.37,11.37,0,0,1,1.2-3.16,1.42,1.42,0,0,1,2,2Z"/><path class="cls-1" d="M27.29,91.44a11.22,11.22,0,0,1-3.37.11A11.25,11.25,0,0,1,26,88.91a1.42,1.42,0,0,1,1.28,2.54Z"/><path class="cls-1" d="M27.85,98a11.24,11.24,0,0,1-3.3.68,11.3,11.3,0,0,1,1.61-3A1.42,1.42,0,0,1,27.85,98Z"/><path class="cls-1" d="M125.61,65.73a16.52,16.52,0,0,1,3,17.19c-3.91,10.27,6.7,27.35,6.7,27.35l-.32-.05a20.16,20.16,0,0,1-13.37-30.85C124.56,74.88,127,69.61,125.61,65.73Z"/><path class="cls-6" d="M125.61,65.73a16.52,16.52,0,0,1,3,17.19c-3.91,10.27,6.7,27.35,6.7,27.35l-.32-.05a20.16,20.16,0,0,1-13.37-30.85C124.56,74.88,127,69.61,125.61,65.73Z"/><path class="cls-7" d="M125.61,65.73s3.91,8.48,0,15.4-.67,26.34,9.72,29.13"/><path class="cls-1" d="M113.29,93.72s7.9-1.26,8.62,5.82,15.18,8.06,15.18,8.06l-.27.18c-11.94,7.84-23.36,5-21.64-5.42C115.81,98.49,115.76,94.6,113.29,93.72Z"/><path class="cls-8" d="M113.29,93.72s7.9-1.26,8.62,5.82,15.18,8.06,15.18,8.06l-.27.18c-11.94,7.84-23.36,5-21.64-5.42C115.81,98.49,115.76,94.6,113.29,93.72Z"/><path class="cls-7" d="M113.29,93.72s6.13,1.34,5.63,6.92,9.1,12.25,18.17,7"/><path class="cls-9" d="M173.36,110s-11.72-2.34-14.85-5.47-17.19-8.6-18.75-4.69S118.67,117,132,119.38s31.25,3.12,35.16,1.56S173.36,110,173.36,110Z"/><path class="cls-6" d="M132,117.93c13.28,2.34,31.25,3.12,35.16,1.56,3-1.19,5-6.91,5.86-9.57l.39.08s-2.34,9.38-6.25,10.94-21.88.78-35.16-1.56c-3.83-.68-4.93-2.27-4.52-4.28C127.75,116.42,129.1,117.43,132,117.93Z"/><path class="cls-10" d="M197.07,5.93a3.44,3.44,0,0,0-1-1.34C193,1.72,187.87,2.59,184,.84a5.18,5.18,0,0,0-2.8-.81c-1.36.21-2.63,1.77-3.82,1.08l.08.26-.08,0L178.22,4a9.72,9.72,0,0,0,1.34,2.93,7.66,7.66,0,0,0,1.85,12.75l.12.27.11,0a9,9,0,0,1,.58,1.86c-1,.14-2.78,1.26-4.51,2.91l-3.47-.12A11.35,11.35,0,0,1,168,22.5L157.63,15a3.47,3.47,0,0,0-2,.88c-1.29-1.34-2.38-2.74-2.29-3.58,0,0-4.83-9-6.58-4.52s3.29,9.26,3.29,9.26l3.2,4.15a17.45,17.45,0,0,0-.24,2.2C157,27.95,170.79,32,170.79,32l2.15.11v.11a7.34,7.34,0,0,0-.19,1.73v.43c.11,7.2,1.1,29.25,1.1,29.25l.59-.24-.15,2a88.77,88.77,0,0,0-16,3.87c-6.8,2.58-7,5.59-7,5.59V101.4c-1.94,1-5,2.31-6.58,1.61s-2.64-.12-2.82.54h0a.84.84,0,0,0,0,.4h0a.72.72,0,0,0,.07.17h0a.68.68,0,0,0,.12.15c.66.65,14.92,6.24,18.21,5.38l.3-.1.09,0,.18-.09.1-.07.15-.1.09-.08.12-.12.08-.09.11-.13.07-.1.1-.15.06-.11.09-.16,0-.11.08-.18,0-.11a2,2,0,0,0,.07-.21.41.41,0,0,1,0-.11l.06-.21a.58.58,0,0,1,0-.1c0-.08,0-.16,0-.24a.2.2,0,0,1,0-.09c0-.09,0-.17,0-.26v-.08c0-.09,0-.19,0-.28v-.06q0-.15,0-.31v-.39a18,18,0,0,0-.42-3.81h0l.83-22.63a123.42,123.42,0,0,0,12.91-.48l.47,10.8s0,7.1,2.41,10.32c2.07,2.76,4.45,15,5.1,18.44-.89,1.68-2.58,3.79-5.54,3.72,0,0-5.56-.48-5.24,1.05h0a.79.79,0,0,0,0,.12h0l.06.13h0l.08.12,0,0,.11.14h0l.12.13,0,0,.16.15c2.85,2.58,19.52,3,19.52,3v-.12h0a28.08,28.08,0,0,0-1.11-7.61h.23s-2.41-21.72-4.39-24.3c0,0-.52-11.45.66-18.63l.21-.08c5.53-2.07,5.92-7.15,5.35-10.89,1.05.34,1.67.57,1.67.57l-.05-.45.05,0s-.11-.68-.28-1.75a74.41,74.41,0,0,0-2-10.47c-.13-.53-.26-1-.37-1.33a22.74,22.74,0,0,1-1-4.47,53,53,0,0,1-.34-5.93,56.87,56.87,0,0,1,.61-7.9,48.35,48.35,0,0,0,.61-6.7,8.94,8.94,0,0,0-.13-1.89c-.29-1.34-1.59-2.21-2.93-2.77l-.26-.1c0-.51.08-1.08.13-1.68a1.45,1.45,0,0,0,1.12.23,2.67,2.67,0,0,0,1.36-1.05c1.94-2.39,3.94-4.88,4.69-7.84a17,17,0,0,0,.42-4q0-.11,0-.22A4.39,4.39,0,0,0,197.07,5.93Z"/><path class="cls-11" d="M179.37,17.57s2.95,4.42,2.31,6.52,6.94.84,6.94.84.21-8.21,1.68-10.1S179.37,17.57,179.37,17.57Z"/><path class="cls-11" d="M159.91,20.41s-6.1-5-5.89-6.94c0,0-4.63-8.84-6.31-4.42s3.16,9,3.16,9l5.89,7.79Z"/><path class="cls-12" d="M153.7,99.63s-5.68,3.58-8,2.52-3.16.63-2.52,1.26,14.31,6.1,17.46,5.26,1.55-7.73,1.55-7.73Z"/><path class="cls-12" d="M183.79,115s-1.37,5.79-6.1,5.68c0,0-7.15-.63-4.42,1.89S192,125.51,192,125.51s0-8.63-2.95-10.52A4.5,4.5,0,0,0,183.79,115Z"/><path class="cls-13" d="M175.16,74.17l.63,14.73s0,6.94,2.31,10.1,5,18.94,5,18.94h8s-2.31-21.25-4.21-23.78c0,0-.84-18.73,2.1-22.93Z"/><path class="cls-2" d="M175.16,74.17l.63,14.73s0,6.94,2.31,10.1,5,18.94,5,18.94h8s-2.31-21.25-4.21-23.78c0,0-.84-18.73,2.1-22.93Z"/><path class="cls-13" d="M191.79,60.92s4.84,11.57-4,14.94S163,78.8,163,78.8l-.84,24.41s-9.89,1.26-10.1-1.89V74.59s.21-2.95,6.73-5.47a83.81,83.81,0,0,1,15.36-3.79l.42-5.47Z"/><path class="cls-2" d="M184,22.79a10.07,10.07,0,0,1,4.94.7,4.29,4.29,0,0,1,2.81,2.71c.33,1.55,0,5-.46,8a55,55,0,0,0-.26,13.95A14.66,14.66,0,0,0,192,52.5c1.26,2.31,2.52,13.26,2.52,13.26s-13.89-5.26-20.83-2.1c0,0-.95-21.57-1.05-28.62-.08-5.46,6.84-11.68,9.15-11.89C183.15,23,182.68,22.93,184,22.79Z"/><path class="cls-14" d="M184,22.37a10.07,10.07,0,0,1,4.94.7,4.29,4.29,0,0,1,2.81,2.71c.33,1.55,0,5-.46,8a55,55,0,0,0-.26,13.95,22.63,22.63,0,0,0,.93,4.37c.95,2.84,2.52,13.26,2.52,13.26s-13.89-5.26-20.83-2.1c0,0-.95-21.57-1.05-28.62-.08-5.46,6.84-11.68,9.15-11.89C183.15,22.6,182.68,22.51,184,22.37Z"/><path class="cls-2" d="M187.79,34l-14.94-.84s-1-7.32,1.21-7.25l14.79.52S192,30.2,187.79,34Z"/><path class="cls-14" d="M187.79,33.56l-17-.84s-13.26-4-17-8.42c0,0,.21-7.79,4.42-8.21l10,7.3a10.75,10.75,0,0,0,6,2.07l14.79.52S192,29.78,187.79,33.56Z"/><path class="cls-2" d="M188.52,18.52A5.78,5.78,0,0,1,190.31,15c1.47-1.89-10.94,2.74-10.94,2.74a22.32,22.32,0,0,1,1.68,3.1,7.54,7.54,0,0,0,3.16.69C186,21.57,187.22,19.6,188.52,18.52Z"/><circle class="cls-11" cx="184.21" cy="13.78" r="7.57"/><path class="cls-2" d="M179.43,8.48a8.39,8.39,0,0,1-1.56-3.19L177,2.68c1.14.67,2.36-.84,3.67-1.05a4.92,4.92,0,0,1,2.68.79c3.75,1.71,8.63.86,11.64,3.67a3.37,3.37,0,0,1,.93,1.32,4.4,4.4,0,0,1,.17,1.47,16.9,16.9,0,0,1-.39,4c-.72,2.9-2.63,5.34-4.5,7.67a2.54,2.54,0,0,1-1.31,1c-1.08.24-1.92-.93-2.34-2a20.81,20.81,0,0,1-1.22-4.22,5.55,5.55,0,0,0-.5-1.78c-.65-1.16-2.26-2.25-3.24-3.15S180.33,9.45,179.43,8.48Z"/><path class="cls-15" d="M179.43,8.27a8.39,8.39,0,0,1-1.56-3.19L177,2.46c1.14.67,2.36-.84,3.67-1.05a4.92,4.92,0,0,1,2.68.79c3.75,1.71,8.63.86,11.64,3.67a3.37,3.37,0,0,1,.93,1.32,4.4,4.4,0,0,1,.17,1.47,16.9,16.9,0,0,1-.39,4c-.72,2.9-2.63,5.34-4.5,7.67a2.54,2.54,0,0,1-1.31,1c-1.08.24-1.92-.93-2.34-2a20.81,20.81,0,0,1-1.22-4.22,5.55,5.55,0,0,0-.5-1.78c-.65-1.16-2.26-2.25-3.24-3.15S180.33,9.24,179.43,8.27Z"/><ellipse class="cls-11" cx="186.21" cy="14.63" rx="0.63" ry="1.37"/><path class="cls-2" d="M190,51.13s-.42,1.26-2.52,1.05-8.21-.63-8.21,0"/><path class="cls-16" d="M173.27,122.35a1.75,1.75,0,0,1-.61-.88c-.05.27.11.63.61,1.09,2.74,2.52,18.73,2.95,18.73,2.95v-.21C191.89,125.3,176,124.87,173.27,122.35Z"/><path class="cls-16" d="M160.65,108.26c-3.16.84-16.83-4.63-17.46-5.26a.68.68,0,0,1-.17-.31.76.76,0,0,0,.17.73c.63.63,14.31,6.1,17.46,5.26,1.62-.43,2-2.47,2-4.34C162.57,106.08,162.15,107.85,160.65,108.26Z"/><path class="cls-17" d="M105.64,106a.32.32,0,1,0-.32-.32A.32.32,0,0,0,105.64,106Z"/><path class="cls-9" d="M19.25,100.41s7.85-.24,10.22-1.93,12.08-3.7,12.66-1,11.8,13.44,2.93,13.52-20.6-1.38-23-2.82S19.25,100.41,19.25,100.41Z"/><path class="cls-6" d="M45.23,110.06c-8.86.07-20.6-1.38-23-2.82-1.8-1.1-2.52-5-2.75-6.84h-.26s.5,6.33,2.86,7.77,14.1,2.9,23,2.84c2.56,0,3.44-.93,3.39-2.28C48.11,109.54,47.13,110,45.23,110.06Z"/><rect class="cls-1" x="197.22" y="111.97" width="21.67" height="8.63" rx="1.86" ry="1.86"/><rect class="cls-2" x="197.22" y="111.97" width="21.67" height="8.63" rx="1.86" ry="1.86"/><rect class="cls-1" x="197.22" y="103.77" width="21.67" height="8.63" rx="1.86" ry="1.86"/><rect class="cls-1" x="197.22" y="95.14" width="21.67" height="8.63" rx="1.86" ry="1.86"/><rect class="cls-2" x="197.22" y="95.14" width="21.67" height="8.63" rx="1.86" ry="1.86"/><rect class="cls-1" x="197.22" y="86.51" width="21.67" height="8.63" rx="1.86" ry="1.86"/></g></g></svg>