<svg xmlns="http://www.w3.org/2000/svg" viewBox="0 0 68.66 67.52"><defs><style>.cls-1{fill:#fdb62f;}.cls-2{fill:#6b962a;}.cls-3{fill:#88b337;}.cls-4{fill:#ffa83d;}.cls-5{fill:#fd7b2f;}.cls-6{fill:#dbdbdb;}</style></defs><title>Asset 15</title><g id="Layer_2" data-name="Layer 2"><g id="Layer_1-2" data-name="Layer 1"><circle class="cls-1" cx="54.93" cy="40.05" r="8.01"/><rect class="cls-2" x="33.19" y="8.01" width="2.29" height="21.74"/><path class="cls-3" d="M34.33,8H32a8,8,0,0,1-8-8h2.29A8,8,0,0,1,34.33,8Z"/><rect class="cls-4" x="24.03" y="34.33" width="16.02" height="4.58"/><rect class="cls-1" x="26.32" y="38.91" width="16.02" height="4.58"/><rect class="cls-4" x="24.03" y="43.48" width="16.02" height="4.58"/><rect class="cls-1" x="26.32" y="48.06" width="16.02" height="4.58"/><rect class="cls-4" x="26.32" y="52.64" width="16.02" height="4.58"/><rect class="cls-1" x="28.61" y="57.22" width="16.02" height="4.58"/><rect class="cls-4" x="26.32" y="61.79" width="16.02" height="4.58"/><path class="cls-3" d="M20.6,11.44h2.29A11.44,11.44,0,0,1,34.33,22.89H32A11.44,11.44,0,0,1,20.6,11.44Z"/><path class="cls-2" d="M44.63,0H42.34a8,8,0,0,0-8,8h2.29A8,8,0,0,0,44.63,0Z"/><path class="cls-2" d="M36.62,22.89H34.33A11.44,11.44,0,0,1,45.77,11.44h2.29A11.44,11.44,0,0,1,36.62,22.89Z"/><rect class="cls-1" x="3.43" y="43.48" width="16.02" height="4.58"/><rect class="cls-4" x="3.43" y="48.06" width="16.02" height="4.58"/><rect class="cls-1" x="5.72" y="52.64" width="16.02" height="4.58"/><rect class="cls-4" x="3.43" y="57.22" width="16.02" height="4.58"/><rect class="cls-1" x="5.72" y="61.79" width="16.02" height="4.58"/><rect class="cls-1" x="46.92" y="48.06" width="16.02" height="4.58"/><rect class="cls-4" x="49.21" y="52.64" width="16.02" height="4.58"/><rect class="cls-1" x="49.21" y="57.22" width="16.02" height="4.58"/><rect class="cls-4" x="49.21" y="61.79" width="16.02" height="4.58"/><circle class="cls-4" cx="54.93" cy="40.05" r="4.58"/><path class="cls-5" d="M54.93,44.63V42.34a2.29,2.29,0,0,0,2.29-2.29h2.29A4.58,4.58,0,0,1,54.93,44.63Z"/><path class="cls-5" d="M52.64,40.05H50.35a4.58,4.58,0,0,1,4.58-4.58v2.29A2.29,2.29,0,0,0,52.64,40.05Z"/><path class="cls-1" d="M57.22,11.44h0a5.56,5.56,0,0,0-4.58-4.58h0a5.56,5.56,0,0,0,4.58-4.58h0a5.56,5.56,0,0,0,4.58,4.58h0A5.56,5.56,0,0,0,57.22,11.44Z"/><path class="cls-1" d="M11.44,36.62h0A5.56,5.56,0,0,0,6.87,32h0a5.56,5.56,0,0,0,4.58-4.58h0A5.56,5.56,0,0,0,16,32h0A5.56,5.56,0,0,0,11.44,36.62Z"/><rect class="cls-1" x="26.32" y="29.75" width="16.02" height="4.58"/><polygon class="cls-1" points="68.66 26.32 65.23 26.32 65.23 22.89 62.94 22.89 62.94 26.32 59.51 26.32 59.51 28.61 62.94 28.61 62.94 32.04 65.23 32.04 65.23 28.61 68.66 28.61 68.66 26.32"/><rect class="cls-6" y="65.23" width="68.66" height="2.29"/><path class="cls-6" d="M22.89,26.32A6.87,6.87,0,0,1,16,19.45V18.31h2.29v1.14A4.58,4.58,0,0,0,22.89,24Z"/></g></g></svg>