<svg xmlns="http://www.w3.org/2000/svg" viewBox="0 0 38 24.4"><defs><style>.cls-1{fill:#e5e5e5;}</style></defs><title>Asset 13</title><g id="Layer_2" data-name="Layer 2"><g id="Layer_1-2" data-name="Layer 1"><path class="cls-1" d="M29.42,0a8.7,8.7,0,0,0-8.68,8.79,8.83,8.83,0,0,0,8.84,8.79h.17a11.13,11.13,0,0,1-7,2.45,2.19,2.19,0,0,0-2.19,2.2,2,2,0,0,0,2,2.2A15.47,15.47,0,0,0,38,8.79h0A8.61,8.61,0,0,0,29.42,0Z"/><path class="cls-1" d="M8.84,0A8.7,8.7,0,0,0,.15,8.79,8.83,8.83,0,0,0,9,17.57h.17a11.13,11.13,0,0,1-7,2.45A2.19,2.19,0,0,0,0,22.21a2,2,0,0,0,2,2.2A15.48,15.48,0,0,0,17.44,8.79h0A8.62,8.62,0,0,0,8.84,0Z"/></g></g></svg>