<svg xmlns="http://www.w3.org/2000/svg" viewBox="0 0 38 24.4"><defs><style>.cls-1{fill:#e5e5e5;}</style></defs><title>Asset 14</title><g id="Layer_2" data-name="Layer 2"><g id="Layer_1-2" data-name="Layer 1"><path class="cls-1" d="M8.58,24.4a8.7,8.7,0,0,0,8.68-8.79A8.83,8.83,0,0,0,8.43,6.83H8.26a11.13,11.13,0,0,1,7-2.45,2.19,2.19,0,0,0,2.19-2.2,2,2,0,0,0-2-2.2A15.47,15.47,0,0,0,0,15.62H0A8.61,8.61,0,0,0,8.58,24.4Z"/><path class="cls-1" d="M29.16,24.4a8.7,8.7,0,0,0,8.69-8.79A8.83,8.83,0,0,0,29,6.83h-.17a11.13,11.13,0,0,1,7-2.45A2.19,2.19,0,0,0,38,2.2,2,2,0,0,0,36,0,15.48,15.48,0,0,0,20.56,15.62h0A8.62,8.62,0,0,0,29.16,24.4Z"/></g></g></svg>