<svg xmlns="http://www.w3.org/2000/svg" viewBox="0 0 39 38.45"><defs><style>.cls-1{fill:#9ccc65;}.cls-2{fill:#7cb342;}.cls-3{fill:#c59969;}.cls-4{fill:#ba8a5a;}</style></defs><title>Asset 33</title><g id="Layer_2" data-name="Layer 2"><g id="Layer_1-2" data-name="Layer 1"><path class="cls-1" d="M13.62,32,1.25,3.76l5-2.2a5.5,5.5,0,0,1,7.24,2.84l5.76,13.16,10.56-4.62A5.5,5.5,0,0,1,34.26,23Z"/><path class="cls-2" d="M19.65,17.39,12.3,29,8.7,20.76l7.09-11.2,3.5,8Z"/><path class="cls-2" d="M34.4,13v10l-.14.06-7.31,3.2v-12l2.91-1.27A5.51,5.51,0,0,1,34.4,13Z"/><path class="cls-3" d="M38.16,21.29,13.63,32,0,1,2.32,0,14.91,28.77,37.17,19Z"/><path class="cls-3" d="M29.43,7.95h2.48V34H29.43Z"/><path class="cls-3" d="M19.5,38.45A27.49,27.49,0,0,1,0,30.38l1.76-1.76a25.12,25.12,0,0,0,35.49,0L39,30.38A27.49,27.49,0,0,1,19.5,38.45Z"/><path class="cls-4" d="M29.43,7.95h2.48v3.72H29.43Z"/><path class="cls-4" d="M13.9,26.47,12.3,29,8.7,20.76l1.6-2.52Z"/><path class="cls-3" d="M6.82,33l-2.1-1.33,15.83-25H35.64V9.19H21.91Z"/></g></g></svg>