<svg xmlns="http://www.w3.org/2000/svg" viewBox="0 0 11.57 14.35"><defs><style>.cls-1{fill:#929392;}</style></defs><title>Asset 39</title><g id="Layer_2" data-name="Layer 2"><g id="Layer_1-2" data-name="Layer 1"><path class="cls-1" d="M11.4,3.2a.56.56,0,0,1,.17.42.59.59,0,0,1-.6.6H9.39A3.66,3.66,0,0,1,8.32,6.81,4.6,4.6,0,0,1,5.6,8a2.69,2.69,0,0,1,.91.52,6.37,6.37,0,0,1,.91,1L10,13.1a.86.86,0,0,1,.2.52.67.67,0,0,1-.23.51.8.8,0,0,1-.55.21A.9.9,0,0,1,8.71,14L5.54,9.65A3.91,3.91,0,0,0,4.38,8.49a3,3,0,0,0-1.46-.31H.79A.84.84,0,0,1,.2,8a.73.73,0,0,1,0-1,.84.84,0,0,1,.58-.18H4.51q3.06,0,3.22-2.58H.6a.6.6,0,0,1-.42-.17A.57.57,0,0,1,0,3.63.54.54,0,0,1,.18,3.2.62.62,0,0,1,.6,3h7Q7.15,1.19,4.51,1.19H.6A.6.6,0,0,1,.18,1,.57.57,0,0,1,0,.58.54.54,0,0,1,.18.16.62.62,0,0,1,.6,0H11a.61.61,0,0,1,.43.16.56.56,0,0,1,.17.42.59.59,0,0,1-.6.6H8.16A3,3,0,0,1,9.29,3H11A.61.61,0,0,1,11.4,3.2Z"/></g></g></svg>