<svg xmlns="http://www.w3.org/2000/svg" viewBox="0 0 52 49.66"><defs><style>.cls-1{fill:#2d5872;}.cls-2{fill:#1d4859;}.cls-3{fill:#7d0;}.cls-4{fill:#73cc00;}.cls-5{fill:#b6fa4d;}.cls-6{fill:#fff;}</style></defs><title>Asset 6</title><g id="Layer_2" data-name="Layer 2"><g id="Layer_1-2" data-name="Layer 1"><path class="cls-1" d="M8.71,0A4.33,4.33,0,0,0,6.08,5.58L20.63,45.17a6.78,6.78,0,0,0,8.66,4.08,6.71,6.71,0,1,0-6.53-11.52L8.71,0ZM25.9,40.06a3.09,3.09,0,1,1-1.84,4A3.09,3.09,0,0,1,25.9,40.06Z"/><path class="cls-2" d="M22.76,37.73h0L8.71,0h0L8.4.13h0L8.23.2l-.07,0L8,.34l0,0L7.71.5h0l-.2.15,0,0L7.3.82l0,0a4.33,4.33,0,0,0-.37.37h0L21.59,40.78l.23-.18A5.87,5.87,0,1,1,30,48.93a6.67,6.67,0,0,0,2-1.5l0,0,.17-.21,0,0,.16-.2,0,0,.14-.2,0-.06.13-.2,0-.06.12-.2,0-.07.11-.21,0-.07.1-.21,0-.06.09-.22,0,0a6.71,6.71,0,0,0,.25-.8v0l0-.2,0-.12,0-.18,0-.14,0-.17,0-.15c0-.05,0-.11,0-.16s0-.11,0-.16,0-.11,0-.16,0-.11,0-.16,0-.1,0-.16,0-.11,0-.17V42.4l0-.17,0-.15,0-.18,0-.15,0-.18,0-.14,0-.19,0-.13-.07-.21,0-.11-.12-.32a6.61,6.61,0,0,0-.77-1.41c-.1-.13-.2-.26-.3-.38l-.29-.32,0,0-.22-.22-.23-.21q-.24-.2-.49-.38a6.81,6.81,0,0,0-3.11-1.21H27.7l-.6,0a6.61,6.61,0,0,0-1.89.23l-.31.09q-.3.1-.58.22h0l-.25.12-.07,0L23.8,37l-.07,0a6.7,6.7,0,0,0-.84.55Z"/><path class="cls-3" d="M50.78,31.63H3.56a1.22,1.22,0,0,1-1.22-1.22V6.8A1.22,1.22,0,0,1,3.56,5.58H50.78A1.22,1.22,0,0,1,52,6.8v23.6A1.22,1.22,0,0,1,50.78,31.63Z"/><path class="cls-4" d="M50.78,5.58H47.3V28.33a1.22,1.22,0,0,1-1.22,1.22H2.33v.85a1.22,1.22,0,0,0,1.22,1.22H50.78A1.22,1.22,0,0,0,52,30.41V6.8A1.22,1.22,0,0,0,50.78,5.58Z"/><rect class="cls-5" x="16.11" y="5.58" width="1.51" height="26.05"/><path class="cls-1" d="M25,0l-14,37.73A6.71,6.71,0,1,0,4.38,49.25,6.78,6.78,0,0,0,13,45.17L27.59,5.58A4.33,4.33,0,0,0,25,0ZM9.61,44a3.09,3.09,0,1,1-1.84-4A3.09,3.09,0,0,1,9.61,44Z"/><path class="cls-2" d="M25.35.16a4.32,4.32,0,0,1,.38,3.77L11.19,43.52A6.78,6.78,0,0,1,2.52,47.6a6.74,6.74,0,0,1-1.12-.54,6.68,6.68,0,0,0,3,2.19A6.78,6.78,0,0,0,13,45.17L27.59,5.58A4.33,4.33,0,0,0,25.35.16Z"/><path class="cls-6" d="M30.22,15.33H26.45c-.28,0-.42.27-.42.54s.18.55.42.55h1.31v5.34c0,.25.24.42.58.42s.58-.14.58-.42V16.41h1.3c.25,0,.42-.23.42-.56S30.5,15.33,30.22,15.33Z"/><path class="cls-6" d="M36.16,15.67a.71.71,0,0,0-.71-.4.7.7,0,0,0-.71.4l-1.81,5.89a.34.34,0,0,0,0,.11c0,.3.37.5.7.5A.4.4,0,0,0,34,21.9l.35-1.22h2.09l.35,1.22a.4.4,0,0,0,.42.27c.34,0,.71-.21.71-.5a.35.35,0,0,0,0-.11Zm-1.49,4,.77-2.65.77,2.65Z"/><path class="cls-6" d="M45.45,21.39l-1.54-2.64,1.5-2.62a.6.6,0,0,0,.09-.29c0-.32-.37-.54-.7-.54a.5.5,0,0,0-.45.33l-1.18,2.16L42,15.63a.51.51,0,0,0-.45-.33c-.34,0-.71.22-.71.54a.6.6,0,0,0,.09.29l1.5,2.62-1.55,2.65a.53.53,0,0,0-.07.24c0,.32.39.57.72.57a.48.48,0,0,0,.4-.27l1.24-2.26,1.25,2.25a.46.46,0,0,0,.39.27c.34,0,.73-.25.73-.57A.56.56,0,0,0,45.45,21.39Z"/><path class="cls-6" d="M12.17,16.82a.39.39,0,0,1,.13.3.4.4,0,0,1-.13.31.44.44,0,0,1-.31.12h-.64a2,2,0,0,1-.57,1.27,2.35,2.35,0,0,1-1.31.63,1.41,1.41,0,0,1,.52.27,3.41,3.41,0,0,1,.51.52l1.12,1.44a.6.6,0,0,1,.15.39.54.54,0,0,1-.2.42.68.68,0,0,1-1-.11l-1.69-2.2a1.85,1.85,0,0,0-.48-.48,1.16,1.16,0,0,0-.6-.14h-.9q-.65,0-.65-.53t.65-.53H8.47q1.23,0,1.41-1H6.53a.44.44,0,0,1-.31-.12.4.4,0,0,1-.13-.31.39.39,0,0,1,.13-.3.44.44,0,0,1,.31-.12H9.85q-.25-.79-1.37-.79H6.53a.44.44,0,0,1-.31-.12.39.39,0,0,1-.13-.3.4.4,0,0,1,.13-.31.44.44,0,0,1,.31-.12h5.33a.44.44,0,0,1,.31.12.4.4,0,0,1,.13.31.39.39,0,0,1-.13.3.44.44,0,0,1-.31.12H10.77a1.6,1.6,0,0,1,.39.79h.69A.44.44,0,0,1,12.17,16.82Z"/></g></g></svg>