<svg xmlns="http://www.w3.org/2000/svg" viewBox="0 0 37 37"><defs><style>.cls-1{fill:#a8d32a;}.cls-2{fill:#93bf00;}.cls-3{fill:#b9dd39;}.cls-4{fill:#7e5d40;}.cls-5{fill:#684d34;}.cls-6{fill:#5c442f;}.cls-7{fill:#4c3828;}</style></defs><title>Asset 32</title><g id="Layer_2" data-name="Layer 2"><g id="Layer_1-2" data-name="Layer 1"><g id="surface1"><path class="cls-1" d="M26.09,23.92a5.42,5.42,0,0,1-5.42-5.42,1.08,1.08,0,0,1,1.08-1.08,5.42,5.42,0,0,1,5.42,5.42A1.08,1.08,0,0,1,26.09,23.92Z"/><path class="cls-1" d="M26.09,15.25a5.42,5.42,0,0,1-5.42-5.42,1.08,1.08,0,0,1,1.08-1.08,5.42,5.42,0,0,1,5.42,5.42A1.08,1.08,0,0,1,26.09,15.25Z"/><path class="cls-2" d="M28.26,23.92a5.42,5.42,0,0,0,5.42-5.42,1.08,1.08,0,0,0-1.08-1.08,5.42,5.42,0,0,0-5.42,5.42A1.08,1.08,0,0,0,28.26,23.92Z"/><path class="cls-2" d="M28.26,15.25a5.42,5.42,0,0,0,5.42-5.42,1.08,1.08,0,0,0-1.08-1.08,5.42,5.42,0,0,0-5.42,5.42A1.08,1.08,0,0,0,28.26,15.25Z"/><path class="cls-3" d="M28.26,9.83V31.51a1.08,1.08,0,1,1-2.17,0V9.83a1.08,1.08,0,0,1,2.17,0Z"/><path class="cls-1" d="M27.17,32.59V8.74a1.07,1.07,0,0,1,1.08,1.08V31.51A1.07,1.07,0,0,1,27.17,32.59Z"/><path class="cls-1" d="M27.89.28a1,1,0,0,0-1.43,0c-.11.09-2.54,2.37-2.54,5.21s2.43,5.05,2.54,5.14a1,1,0,0,0,1.43,0c.11-.09,2.54-2.3,2.54-5.14S28,.37,27.89.28Z"/><path class="cls-2" d="M30.42,5.49c0,2.84-2.43,5.05-2.54,5.14a1,1,0,0,1-.72.28V0a1,1,0,0,1,.72.28C28,.37,30.42,2.65,30.42,5.49Z"/><path class="cls-1" d="M8.74,23.92A5.42,5.42,0,0,1,3.32,18.5a1.08,1.08,0,0,1,1.08-1.08,5.42,5.42,0,0,1,5.42,5.42A1.08,1.08,0,0,1,8.74,23.92Z"/><path class="cls-1" d="M8.74,15.25A5.42,5.42,0,0,1,3.32,9.83,1.08,1.08,0,0,1,4.41,8.74a5.42,5.42,0,0,1,5.42,5.42A1.08,1.08,0,0,1,8.74,15.25Z"/><path class="cls-2" d="M10.91,23.92a5.42,5.42,0,0,0,5.42-5.42,1.08,1.08,0,0,0-1.08-1.08,5.42,5.42,0,0,0-5.42,5.42A1.08,1.08,0,0,0,10.91,23.92Z"/><path class="cls-2" d="M10.91,15.25a5.42,5.42,0,0,0,5.42-5.42,1.08,1.08,0,0,0-1.08-1.08,5.42,5.42,0,0,0-5.42,5.42A1.08,1.08,0,0,0,10.91,15.25Z"/><path class="cls-3" d="M10.91,9.83V31.51a1.08,1.08,0,1,1-2.17,0V9.83a1.08,1.08,0,0,1,2.17,0Z"/><path class="cls-1" d="M9.83,32.59V8.74a1.07,1.07,0,0,1,1.08,1.08V31.51A1.07,1.07,0,0,1,9.83,32.59Z"/><path class="cls-1" d="M10.54.28a1,1,0,0,0-1.43,0C9,.37,6.58,2.65,6.58,5.49S9,10.54,9.11,10.63a1,1,0,0,0,1.43,0c.11-.09,2.54-2.3,2.54-5.14S10.65.37,10.54.28Z"/><path class="cls-2" d="M13.08,5.49c0,2.84-2.43,5.05-2.54,5.14a1,1,0,0,1-.72.28V0a1,1,0,0,1,.72.28C10.65.37,13.08,2.65,13.08,5.49Z"/><path class="cls-4" d="M36.33,27.71a5.23,5.23,0,0,1-.85-.46,7,7,0,0,0-7.77,0,4.82,4.82,0,0,1-5.31,0,7.09,7.09,0,0,0-3.9-1.17,6.79,6.79,0,0,0-3.79,1.17,4.82,4.82,0,0,1-5.31,0,7,7,0,0,0-7.77,0,1.37,1.37,0,0,1-.63.22,1.09,1.09,0,0,0-1,1.08v7.36A1.07,1.07,0,0,0,1.08,37H35.92A1.07,1.07,0,0,0,37,35.92v-7.2A1.06,1.06,0,0,0,36.33,27.71Z"/><path class="cls-5" d="M37,28.71v7.2A1.07,1.07,0,0,1,35.92,37H18.5V26.09a7.09,7.09,0,0,1,3.9,1.17,4.82,4.82,0,0,0,5.31,0,7,7,0,0,1,7.77,0,5.24,5.24,0,0,0,.85.46A1.06,1.06,0,0,1,37,28.71Z"/><path class="cls-6" d="M7.66,32.59H5.49a1.08,1.08,0,0,1,0-2.17H7.66a1.08,1.08,0,0,1,0,2.17Z"/><path class="cls-7" d="M31.51,32.59H29.34a1.08,1.08,0,0,1,0-2.17h2.17a1.08,1.08,0,0,1,0,2.17Z"/><path class="cls-6" d="M20.67,31.51a1.07,1.07,0,0,1-1.08,1.08H17.42a1.08,1.08,0,0,1,0-2.17h2.17A1.07,1.07,0,0,1,20.67,31.51Z"/><path class="cls-7" d="M20.67,31.51a1.07,1.07,0,0,1-1.08,1.08H18.5V30.42h1.08A1.07,1.07,0,0,1,20.67,31.51Z"/></g></g></g></svg>