<svg xmlns="http://www.w3.org/2000/svg" xmlns:xlink="http://www.w3.org/1999/xlink" viewBox="0 0 159.43 137"><defs><style>.cls-1{fill:url(#linear-gradient);}.cls-2{fill:#fff;}.cls-3{fill:#bdbdbd;}.cls-4{fill:#e0e0e0;}.cls-5{fill:#2ecc71;}.cls-6{fill:url(#linear-gradient-2);}.cls-7{fill:url(#linear-gradient-3);}.cls-8{fill:url(#linear-gradient-4);}.cls-9{fill:url(#linear-gradient-5);}.cls-10{fill:url(#linear-gradient-6);}.cls-11{fill:url(#linear-gradient-7);}.cls-12{fill:#3095e2;}</style><linearGradient id="linear-gradient" x1="79.72" y1="-1407" x2="79.72" y2="-1270" gradientTransform="matrix(1, 0, 0, -1, 0, -1270)" gradientUnits="userSpaceOnUse"><stop offset="0.01" stop-color="gray" stop-opacity="0.25"/><stop offset="0.54" stop-color="gray" stop-opacity="0.12"/><stop offset="1" stop-color="gray" stop-opacity="0.1"/></linearGradient><linearGradient id="linear-gradient-2" x1="38.66" y1="-1354.22" x2="38.66" y2="-1322.48" gradientTransform="matrix(1, 0, 0, -1, 0, -1270)" gradientUnits="userSpaceOnUse"><stop offset="0" stop-color="#b3b3b3" stop-opacity="0.25"/><stop offset="0.54" stop-color="#b3b3b3" stop-opacity="0.12"/><stop offset="1" stop-color="#b3b3b3" stop-opacity="0.1"/></linearGradient><linearGradient id="linear-gradient-3" x1="79.22" y1="-1354.22" x2="79.22" y2="-1322.48" xlink:href="#linear-gradient-2"/><linearGradient id="linear-gradient-4" x1="119.88" y1="-1354.22" x2="119.88" y2="-1322.48" xlink:href="#linear-gradient-2"/><linearGradient id="linear-gradient-5" x1="38.66" y1="-1393.48" x2="38.66" y2="-1362.13" xlink:href="#linear-gradient-2"/><linearGradient id="linear-gradient-6" x1="79.22" y1="-1393.48" x2="79.22" y2="-1362.13" xlink:href="#linear-gradient-2"/><linearGradient id="linear-gradient-7" x1="119.88" y1="-1393.48" x2="119.88" y2="-1362.13" xlink:href="#linear-gradient-2"/></defs><title>Asset 42</title><g id="Layer_2" data-name="Layer 2"><g id="Layer_1-2" data-name="Layer 1"><rect class="cls-1" width="159.43" height="137"/><rect class="cls-2" x="1.93" y="2.05" width="155.58" height="132.73"/><rect class="cls-3" x="23.73" y="16.39" width="50.87" height="4.17"/><rect class="cls-4" x="23.73" y="24.73" width="111.16" height="4.17"/><rect class="cls-5" x="23.73" y="33.06" width="111.16" height="4.17"/><rect class="cls-6" x="22.63" y="52.48" width="32.05" height="31.75"/><rect class="cls-7" x="63.29" y="52.48" width="31.85" height="31.75"/><rect class="cls-8" x="103.95" y="52.48" width="31.85" height="31.75"/><rect class="cls-9" x="22.63" y="92.13" width="32.05" height="31.35"/><rect class="cls-10" x="63.29" y="92.13" width="31.85" height="31.35"/><rect class="cls-11" x="103.95" y="92.13" width="31.85" height="31.35"/><rect class="cls-12" x="23.73" y="53.18" width="29.84" height="29.84"/><rect class="cls-12" x="64.39" y="53.18" width="29.84" height="29.84"/><rect class="cls-12" x="105.05" y="53.18" width="29.84" height="29.84"/><rect class="cls-12" x="23.73" y="92.43" width="29.84" height="29.84"/><rect class="cls-12" x="64.39" y="92.43" width="29.84" height="29.84"/><rect class="cls-12" x="105.05" y="92.43" width="29.84" height="29.84"/></g></g></svg>