<svg xmlns="http://www.w3.org/2000/svg" viewBox="0 0 51.53 46"><defs><style>.cls-1{fill:#c8d4df;}.cls-2{fill:#d9e7f3;}.cls-3{fill:#2d2d55;}.cls-4{fill:#0a0a48;}.cls-5{fill:#ffc300;}.cls-6{fill:#fab400;}</style></defs><title>Asset 7</title><g id="Layer_2" data-name="Layer 2"><g id="Layer_1-2" data-name="Layer 1"><path class="cls-1" d="M50,29.69H31.91a1.51,1.51,0,0,1-1.4-2.08L39.57,5.47a1.51,1.51,0,0,1,2.79,0l9.06,22.14A1.51,1.51,0,0,1,50,29.69Zm-15.87-3H47.77L41,10Z"/><path class="cls-2" d="M19.63,29.69H1.51a1.51,1.51,0,0,1-1.4-2.08L9.17,5.47a1.51,1.51,0,0,1,2.79,0L21,27.61a1.51,1.51,0,0,1-1.4,2.08Zm-15.87-3H17.38L10.57,10Z"/><path class="cls-3" d="M32.81,43H27.28V10.57a1.51,1.51,0,1,0-3,0V43H18.72a1.51,1.51,0,1,0,0,3H32.81a1.51,1.51,0,1,0,0-3Z"/><path class="cls-4" d="M32.81,46a1.51,1.51,0,1,0,0-3H27.28V10.57a1.51,1.51,0,0,0-1.51-1.51V46Z"/><path class="cls-1" d="M41,7.55H30.3a1.51,1.51,0,0,1,0-3H41a1.51,1.51,0,1,1,0,3Z"/><path class="cls-2" d="M21.24,7.55H10.57a1.51,1.51,0,1,1,0-3H21.24a1.51,1.51,0,0,1,0,3Z"/><path class="cls-5" d="M41,37.74c-5.83,0-10.57-4.29-10.57-9.56a1.51,1.51,0,0,1,1.51-1.51H50a1.51,1.51,0,0,1,1.51,1.51C51.53,33.45,46.79,37.74,41,37.74Z"/><path class="cls-5" d="M10.57,37.74C4.74,37.74,0,33.45,0,28.18a1.51,1.51,0,0,1,1.51-1.51H19.63a1.51,1.51,0,0,1,1.51,1.51C21.14,33.45,16.4,37.74,10.57,37.74Z"/><path class="cls-5" d="M25.77,12.08a6,6,0,1,1,6-6A6,6,0,0,1,25.77,12.08Z"/><path class="cls-6" d="M25.77,0V12.08A6,6,0,1,0,25.77,0Z"/><path class="cls-6" d="M50,26.67H41V37.74c5.83,0,10.57-4.29,10.57-9.56A1.51,1.51,0,0,0,50,26.67Z"/><path class="cls-6" d="M19.63,26.67H10.57V37.74c5.83,0,10.57-4.29,10.57-9.56A1.51,1.51,0,0,0,19.63,26.67Z"/></g></g></svg>