<svg xmlns="http://www.w3.org/2000/svg" viewBox="0 0 110.11 110"><defs><style>.cls-1{fill:#266cb2;}.cls-2{fill:#ffe2ba;}.cls-3{fill:#ffb742;}.cls-4{fill:#80c9ff;}.cls-5{fill:#4db2ff;}.cls-6{fill:#d1871c;}</style></defs><title>Asset 10</title><g id="Layer_2" data-name="Layer 2"><g id="Layer_1-2" data-name="Layer 1"><path class="cls-1" d="M98.28,83.12H91.83v-11H18.28v11H11.83V65.7H98.28Z"/><path class="cls-1" d="M51.83,57.1h6.45v26H51.83Z"/><path class="cls-2" d="M55.05,60.86,30.32,46V14.84L55.05,0,79.79,14.84V46Z"/><path class="cls-3" d="M55.05,60.86,30.32,46V14.84L55.05,29.68,79.79,14.84V46Z"/><path class="cls-4" d="M55.05,110A15.05,15.05,0,1,1,70.11,94.95,15.07,15.07,0,0,1,55.05,110Z"/><path class="cls-4" d="M15.05,110A15.05,15.05,0,1,1,30.11,94.95,15.07,15.07,0,0,1,15.05,110Z"/><path class="cls-5" d="M95.06,110a15.05,15.05,0,1,1,15.05-15.05A15.07,15.07,0,0,1,95.06,110Z"/><path class="cls-6" d="M55.05,29.68V60.86L79.79,46V14.84Z"/></g></g></svg>