<svg xmlns="http://www.w3.org/2000/svg" viewBox="0 0 64.59 63.48"><defs><style>.cls-1{fill:#f4adc9;}.cls-2{fill:#fff;}.cls-3{fill:#e685a5;}.cls-4{fill:#ffd949;}.cls-5{fill:#f4bf1a;}</style></defs><title>Asset 17</title><g id="Layer_2" data-name="Layer 2"><g id="Layer_1-2" data-name="Layer 1"><g id="_Group_" data-name="&lt;Group&gt;"><path id="_Path_" data-name="&lt;Path&gt;" class="cls-1" d="M57.77,37.08c-.1,0-.2,0-.3,0a3.83,3.83,0,0,1-1.42-7.38A22.94,22.94,0,0,0,45,17.37h0a12.65,12.65,0,0,1-3.09,4.45,16.15,16.15,0,0,0-16.23.71,12.62,12.62,0,0,1-4.24-6c0-.06-.06-.12-.08-.19-1.57.49-3,1-3.85,1.35C12.93,15.82,9.73,15,6.92,15.32a.39.39,0,0,0-.11.75C9.36,17.3,9.81,20.55,11,23c-3.33,3.21-3.66,5.54-4.25,9.74H4.38C1.24,32.73,0,35.27,0,38.42v3.95C0,45.5,1.24,48,4.38,48H5.82c3.26,9.49,14.72,14.57,26.74,14.57C47.22,62.62,58,54.18,58,41.48a38.84,38.84,0,0,0-.25-4.41"/><path id="_Path_2" data-name="&lt;Path&gt;" class="cls-2" d="M17.52,31.09a2.74,2.74,0,1,1-2.74-2.74,2.74,2.74,0,0,1,2.74,2.74"/><path id="_Path_3" data-name="&lt;Path&gt;" class="cls-3" d="M58,41.48a1.09,1.09,0,1,1,0-2.19,4.38,4.38,0,0,0,4.38-4.38,1.09,1.09,0,1,1,2.19,0A6.57,6.57,0,0,1,58,41.48"/><path id="_Path_4" data-name="&lt;Path&gt;" class="cls-3" d="M63.5,36a1.09,1.09,0,0,1-1.09-1.09A4.38,4.38,0,0,0,58,30.54a1.09,1.09,0,1,1,0-2.19,6.57,6.57,0,0,1,6.57,6.57A1.09,1.09,0,0,1,63.5,36"/><path id="_Compound_Path_" data-name="&lt;Compound Path&gt;" class="cls-3" d="M57.48,38.2a4.92,4.92,0,1,1,4.92-4.92,4.93,4.93,0,0,1-4.92,4.92m0-7.66a2.74,2.74,0,1,0,2.74,2.74,2.74,2.74,0,0,0-2.74-2.74"/><path id="_Path_5" data-name="&lt;Path&gt;" class="cls-3" d="M61.24,33.78a1.09,1.09,0,0,1-1-1.55,5.47,5.47,0,0,0,0-4.52,1.09,1.09,0,0,1,2-.89,7.66,7.66,0,0,1,0,6.33,1.09,1.09,0,0,1-1,.64"/><path id="_Path_6" data-name="&lt;Path&gt;" class="cls-3" d="M53.34,54.33a23.31,23.31,0,0,1-10.62,6.77L43,62.18a1.82,1.82,0,0,0,1.74,1.29h6.59a3.68,3.68,0,0,0,3.47-4.9Z"/><path id="_Path_7" data-name="&lt;Path&gt;" class="cls-3" d="M9.81,54.46,8,58.87a3.36,3.36,0,0,0,3.12,4.61h7.38a1.17,1.17,0,0,0,1.09-.74l.79-2a25.83,25.83,0,0,1-10.61-6.3"/><path id="_Path_8" data-name="&lt;Path&gt;" class="cls-3" d="M31.08,59.23a27.7,27.7,0,0,1-11.51-2.43,1.09,1.09,0,0,1,.89-2,25.87,25.87,0,0,0,13.38,2.12A1.09,1.09,0,1,1,34,59.09q-1.51.13-3,.13"/><path id="_Path_9" data-name="&lt;Path&gt;" class="cls-3" d="M45.83,25.8a1.09,1.09,0,0,1-.77-.32,15.08,15.08,0,0,0-21.29,0,1.09,1.09,0,1,1-1.55-1.55,17.26,17.26,0,0,1,24.39,0,1.09,1.09,0,0,1-.77,1.87"/><path id="_Path_10" data-name="&lt;Path&gt;" class="cls-4" d="M24.83,21.78A17.29,17.29,0,0,1,42.71,21a12.59,12.59,0,1,0-17.87.77"/><path id="_Path_11" data-name="&lt;Path&gt;" class="cls-5" d="M29.32,19.66a17.36,17.36,0,0,1,8.85-.34,8.21,8.21,0,1,0-8.85.34"/></g></g></g></svg>