<svg xmlns="http://www.w3.org/2000/svg" viewBox="0 0 61.8 63.93"><defs><style>.cls-1{fill:#4c4031;}.cls-2{fill:#87d381;}.cls-3{fill:#d19d18;}.cls-4{fill:#fcc62d;}.cls-5{fill:#e4af18;}.cls-6{fill:#6b5b46;}.cls-7{fill:#fff;}</style></defs><title>Asset 16</title><g id="Layer_2" data-name="Layer 2"><g id="Layer_1-2" data-name="Layer 1"><g id="_Group_" data-name="&lt;Group&gt;"><path id="_Path_" data-name="&lt;Path&gt;" class="cls-1" d="M35.13,20a5.5,5.5,0,0,1-3.9-1.61,1.1,1.1,0,0,1,1.56-1.56,3.31,3.31,0,0,0,4.68,0A1.1,1.1,0,0,1,39,18.42,5.49,5.49,0,0,1,35.13,20"/><path id="_Path_2" data-name="&lt;Path&gt;" class="cls-2" d="M42,43.74h0V39.34c0-.93,2.88-2.58,6.87-3.18a20.91,20.91,0,0,0-6.23-7.8l-8-5.43A11.44,11.44,0,0,0,33.28,22,28.08,28.08,0,0,1,32,16.3L31.46,11a6.23,6.23,0,0,1,0-1.41c.07-.59.15-1.45.18-1.54s.16-.43.26-.65a14.86,14.86,0,0,1,1.57-2.53,6.43,6.43,0,0,1,.63-.65A2.11,2.11,0,0,0,33.46.56,10.69,10.69,0,0,0,30.69,0h-.28c-.22,0-.44,0-.66,0A6.53,6.53,0,0,0,26,1.44a2.17,2.17,0,0,1-1.34.48,2.18,2.18,0,0,1-1.36-.48A6.7,6.7,0,0,0,18.59,0a10.69,10.69,0,0,0-2.77.55,2.11,2.11,0,0,0-.64,3.65,5.8,5.8,0,0,1,.42.41l.13.14c.19.21.38.44.57.68A10.11,10.11,0,0,1,17.65,8c.07.21.15,1.39.26,2A7,7,0,0,1,18,11.32v3.84a28.07,28.07,0,0,1-.81,6.65,8.44,8.44,0,0,0-1.5.91L8,28.4A20.5,20.5,0,0,0,2.14,53.67C4,57.28,6.52,60.39,9.5,60.59c.28,0,.55,0,.83,0H32a7.24,7.24,0,0,1-.68-1.57h.34c7.19-.48,11.83-5,10.25-11.31v-4Z"/><path id="_Path_3" data-name="&lt;Path&gt;" class="cls-3" d="M51.88,45.84c-5.48,0-9.92-.94-9.92-2.1v4.41c0,1.16,4.44,2.1,9.92,2.1s9.92-.94,9.92-2.1V43.74c0,1.16-4.44,2.1-9.92,2.1"/><path id="_Path_4" data-name="&lt;Path&gt;" class="cls-3" d="M42,43.74Z"/><path id="_Path_5" data-name="&lt;Path&gt;" class="cls-3" d="M61.8,43.74Z"/><path id="_Path_6" data-name="&lt;Path&gt;" class="cls-4" d="M61.8,39.34c0,1.16-4.44,2.1-9.92,2.1S42,40.49,42,39.34s4.44-3.41,9.92-3.41,9.92,2.25,9.92,3.41"/><path id="_Path_7" data-name="&lt;Path&gt;" class="cls-5" d="M51.88,41.43c-5.48,0-9.92-.94-9.92-2.1v4.41c0,1.16,4.44,2.1,9.92,2.1s9.92-.94,9.92-2.1V39.34c0,1.16-4.44,2.1-9.92,2.1"/><path id="_Path_8" data-name="&lt;Path&gt;" class="cls-5" d="M42,39.33Z"/><path id="_Path_9" data-name="&lt;Path&gt;" class="cls-5" d="M61.8,39.33Z"/><path id="_Path_10" data-name="&lt;Path&gt;" class="cls-6" d="M32,18.74H17.71a1.1,1.1,0,1,1,0-2.2H32a1.1,1.1,0,0,1,0,2.2"/><path id="_Path_11" data-name="&lt;Path&gt;" class="cls-6" d="M32,15.43H17.71a1.1,1.1,0,1,1,0-2.2H32a1.1,1.1,0,1,1,0,2.2"/><path id="_Path_12" data-name="&lt;Path&gt;" class="cls-6" d="M32,12.13H17.71a1.1,1.1,0,1,1,0-2.2H32a1.1,1.1,0,1,1,0,2.2"/><path id="_Path_13" data-name="&lt;Path&gt;" class="cls-5" d="M51.88,59.07A39,39,0,0,1,46,58.65a7.72,7.72,0,0,1-2.73,3.75,28.1,28.1,0,0,0,8.64,1.07c5.48,0,9.92-.94,9.92-2.1V57c0,1.16-4.44,2.1-9.92,2.1"/><path id="_Path_14" data-name="&lt;Path&gt;" class="cls-5" d="M51.88,50.25c-5.48,0-9.92-.94-9.92-2.1v1.1a7.72,7.72,0,0,1,4.15,5,39.35,39.35,0,0,0,5.77.39c5.48,0,9.92-.94,9.92-2.1V48.15c0,1.16-4.44,2.1-9.92,2.1"/><path id="_Path_15" data-name="&lt;Path&gt;" class="cls-3" d="M51.88,54.66a39.35,39.35,0,0,1-5.77-.39A7.57,7.57,0,0,1,46,58.65a39,39,0,0,0,5.91.42c5.48,0,9.92-.94,9.92-2.1V52.56c0,1.16-4.44,2.1-9.92,2.1"/><path id="_Path_16" data-name="&lt;Path&gt;" class="cls-4" d="M46.37,56.21a7.72,7.72,0,1,1-7.72-7.72,7.72,7.72,0,0,1,7.72,7.72"/><path id="_Path_17" data-name="&lt;Path&gt;" class="cls-7" d="M7.79,45.19a1.1,1.1,0,0,1-1.1-1.1c0-7.57,8.36-16.53,15.43-16.53a1.1,1.1,0,0,1,0,2.2c-5.81,0-13.23,8-13.23,14.33a1.1,1.1,0,0,1-1.1,1.1"/></g></g></g></svg>