<svg xmlns="http://www.w3.org/2000/svg" viewBox="0 0 19.35 19.35"><defs><style>.cls-1{fill:#444;}</style></defs><title>Asset 45</title><g id="Layer_2" data-name="Layer 2"><g id="Layer_1-2" data-name="Layer 1"><g id="post-linkedin"><path class="cls-1" d="M17.42,0H1.94A1.94,1.94,0,0,0,0,1.94V17.42a1.94,1.94,0,0,0,1.94,1.94H17.42a1.94,1.94,0,0,0,1.94-1.94V1.94A1.94,1.94,0,0,0,17.42,0ZM5.81,16.45H2.9V7.74h2.9ZM4.35,6.1A1.74,1.74,0,1,1,6.1,4.35,1.73,1.73,0,0,1,4.35,6.1Zm12.1,10.35h-2.9V11.32a1.45,1.45,0,0,0-2.9,0v5.13H7.74V7.74h2.9V8.9a3.13,3.13,0,0,1,2.42-1.35,3.43,3.43,0,0,1,3.39,3.39Z"/></g></g></g></svg>