<svg xmlns="http://www.w3.org/2000/svg" viewBox="0 0 36.56 36.56"><defs><style>.cls-1{fill:#e4e7e7;}.cls-2{fill:#e2574c;}.cls-3{fill:#d95449;}.cls-4{fill:#e5685e;}.cls-5{fill:#efefef;}.cls-6{fill:#e6e6e6;}.cls-7{fill:#f1f1f1;}</style></defs><title>Asset 31</title><g id="Layer_2" data-name="Layer 2"><g id="Layer_1-2" data-name="Layer 1"><path class="cls-1" d="M32,17.74l-.09-1.17.74-.74A8.42,8.42,0,0,0,20.74,3.91L20,4.66a7.79,7.79,0,0,0-1.17-.09l1.29-1.29A9.31,9.31,0,0,1,33.28,16.45ZM16.6,4.68l-.74-.74A8.42,8.42,0,0,0,3.94,15.85l.74.74a7.79,7.79,0,0,0-.09,1.17L3.31,16.48A9.31,9.31,0,0,1,16.48,3.31L17.77,4.6A7.78,7.78,0,0,0,16.6,4.68Zm-12,14.14L4.66,20l-.74.74A8.41,8.41,0,1,0,15.8,32.65l.74-.74a7.79,7.79,0,0,0,1.17.09l-1.29,1.29A9.29,9.29,0,1,1,3.28,20.14ZM20,31.88l.74.74A8.41,8.41,0,1,0,32.59,20.71L31.85,20a7.79,7.79,0,0,0,.09-1.17l1.29,1.29A9.29,9.29,0,1,1,20.08,33.22L18.8,31.93A5.28,5.28,0,0,0,20,31.88Z"/><path class="cls-2" d="M18.28,0A18.28,18.28,0,1,0,36.56,18.28,18.3,18.3,0,0,0,18.28,0Zm0,27.42a9.14,9.14,0,1,1,9.14-9.14A9.13,9.13,0,0,1,18.28,27.42Z"/><path class="cls-3" d="M18.28,6.94A11.34,11.34,0,1,0,29.62,18.28,11.35,11.35,0,0,0,18.28,6.94Zm0,20.48a9.14,9.14,0,1,1,9.14-9.14A9.13,9.13,0,0,1,18.28,27.42Z"/><path class="cls-4" d="M18.28,2.57A15.71,15.71,0,1,0,34,18.28,15.7,15.7,0,0,0,18.28,2.57Zm0,30.28A14.57,14.57,0,1,1,32.85,18.28,14.56,14.56,0,0,1,18.28,32.85Z"/><path class="cls-5" d="M14,26.36a9.13,9.13,0,0,1-3.86-3.86l-6.6,6.63A18.28,18.28,0,0,0,7.43,33Zm8.48-16.2A9,9,0,0,1,26.36,14L33,7.43a19,19,0,0,0-3.86-3.86ZM3.57,7.43l6.6,6.6A9,9,0,0,1,14,10.17l-6.6-6.6A19,19,0,0,0,3.57,7.43ZM33,29.14l-6.6-6.6a9,9,0,0,1-3.86,3.86l6.6,6.6A19,19,0,0,0,33,29.14Z"/><path class="cls-6" d="M24.14,8.57l-1.6,1.6A9,9,0,0,1,26.39,14l1.6-1.6A11.58,11.58,0,0,0,24.14,8.57Zm-14,13.94-1.6,1.63A11.58,11.58,0,0,0,12.43,28l1.6-1.6A9.53,9.53,0,0,1,10.17,22.51Zm12.37,3.88,1.6,1.6A11.58,11.58,0,0,0,28,24.14l-1.6-1.6A9.64,9.64,0,0,1,22.54,26.39ZM14.05,10.2,12.43,8.57a11.85,11.85,0,0,0-3.86,3.86l1.6,1.6A9.29,9.29,0,0,1,14.05,10.2Z"/><path class="cls-7" d="M6.23,26.48l-.83.83a16,16,0,0,0,3.86,3.86l.83-.83A15,15,0,0,1,6.23,26.48Zm24.11,0a14.56,14.56,0,0,1-3.86,3.86l.83.83a16.47,16.47,0,0,0,3.86-3.86ZM6.23,10.08a14.56,14.56,0,0,1,3.86-3.86l-.8-.8A16.47,16.47,0,0,0,5.43,9.28Zm24.11,0,.83-.83A16.47,16.47,0,0,0,27.31,5.4l-.83.83A15,15,0,0,1,30.34,10.08Z"/></g></g></svg>