<svg xmlns="http://www.w3.org/2000/svg" viewBox="0 0 19.11 15.53"><defs><style>.cls-1{fill:#444;}</style></defs><title>Asset 44</title><g id="Layer_2" data-name="Layer 2"><g id="Layer_1-2" data-name="Layer 1"><path class="cls-1" d="M19.11,1.84a7.83,7.83,0,0,1-2.25.62A3.94,3.94,0,0,0,18.59.29a7.9,7.9,0,0,1-2.49,1A3.92,3.92,0,0,0,9.41,4.81,11.13,11.13,0,0,1,1.33.72,3.93,3.93,0,0,0,2.55,6,3.92,3.92,0,0,1,.77,5.46v0A3.92,3.92,0,0,0,3.91,9.35a4,4,0,0,1-1,.14,3.76,3.76,0,0,1-.74-.07A3.92,3.92,0,0,0,5.8,12.14,7.87,7.87,0,0,1,.94,13.81,8.33,8.33,0,0,1,0,13.76a11.08,11.08,0,0,0,6,1.76A11.08,11.08,0,0,0,17.17,4.37V3.86A7.83,7.83,0,0,0,19.11,1.84Z"/></g></g></svg>